{"glyphs":{"0":{"ha":813,"x_min":3,"x_max":678,"o":"m 136 951 l 136 1015 l 221 1015 l 234 1015 l 251 1015 l 264 1015 l 286 1015 l 298 1015 l 358 1015 l 490 1015 l 546 1015 l 546 964 l 546 951 l 602 951 l 614 951 l 614 896 l 614 883 l 665 883 l 678 883 l 678 831 l 678 819 l 678 746 l 678 729 l 678 712 l 678 695 l 678 677 l 678 631 l 678 554 l 678 537 l 678 511 l 678 490 l 678 465 l 678 391 l 678 366 l 678 336 l 678 311 l 678 281 l 678 255 l 678 225 l 678 199 l 648 199 l 614 199 l 614 148 l 614 136 l 614 62 l 559 62 l 546 62 q 537 -1 553 31 l 507 -1 l 473 -1 l 401 -1 l 383 -1 l 366 -1 l 349 -1 l 332 -1 l 286 -1 l 208 -1 l 191 -1 l 136 -1 l 136 62 l 80 62 l 67 62 l 67 131 l 37 131 l 3 131 l 3 814 l 55 814 l 67 814 l 67 951 l 123 951 l 136 951 m 290 883 l 273 883 l 273 827 l 273 814 l 217 814 l 204 814 l 204 763 l 204 751 l 204 677 l 204 661 l 204 644 l 204 627 l 204 610 l 204 562 l 204 486 l 204 469 l 204 443 l 204 422 l 204 396 l 204 323 l 204 298 l 204 268 l 204 242 l 204 212 l 204 186 l 204 157 l 204 131 l 256 131 l 268 131 l 340 131 l 358 131 l 375 131 l 392 131 l 409 131 l 409 268 q 477 272 438 263 l 477 883 l 448 883 l 414 883 l 340 883 l 323 883 l 307 883 l 290 883 "},"1":{"ha":633,"x_min":1,"x_max":509,"o":"m 192 956 l 192 1016 l 240 1016 l 252 1016 l 320 1016 l 336 1016 l 353 1016 l 368 1016 l 385 1016 l 385 968 l 385 956 l 385 888 l 385 872 l 385 856 l 385 840 l 385 824 l 385 780 l 385 708 l 385 692 l 385 668 l 385 648 l 385 624 l 385 595 l 385 572 l 385 544 l 385 420 l 385 408 l 385 395 l 385 315 l 385 283 l 385 252 l 385 220 l 385 187 l 509 187 l 509 115 l 509 100 l 509 87 l 509 71 l 509 56 l 509 16 l 509 -1 l 481 -1 l 448 -1 l 380 -1 l 364 -1 l 349 -1 l 332 -1 l 317 -1 l 273 -1 l 200 -1 l 184 -1 l 160 -1 l 140 -1 l 116 -1 l 88 -1 l 64 -1 l 36 -1 q 4 60 -9 -9 l 52 60 l 64 60 l 64 123 l 116 123 l 128 123 l 128 187 l 180 187 l 192 187 l 192 764 l 120 764 l 104 764 l 92 764 l 76 764 l 60 764 l 20 764 l 4 764 l 4 828 l 52 828 l 64 828 l 64 892 l 116 892 l 128 892 l 128 956 l 180 956 l 192 956 "},"2":{"ha":760,"x_min":0,"x_max":632,"o":"m 124 956 l 124 1016 l 172 1016 l 184 1016 l 252 1016 l 268 1016 l 320 1016 l 340 1016 l 356 1016 l 424 1016 l 444 1016 l 444 968 l 444 956 l 496 956 l 508 956 l 508 904 l 508 892 l 560 892 l 572 892 l 572 812 l 572 800 l 572 784 l 572 772 l 572 751 l 572 740 l 572 684 l 572 559 l 572 507 l 520 507 l 508 507 l 508 460 l 508 448 l 508 380 l 456 380 l 444 380 l 444 328 l 444 315 l 392 315 l 380 315 l 380 264 l 380 252 l 328 252 l 316 252 l 316 199 l 316 187 l 364 187 l 376 187 l 444 187 l 460 187 l 476 187 l 492 187 l 564 187 l 580 187 l 632 187 l 632 140 l 632 127 l 632 60 l 604 60 l 572 60 l 572 12 l 572 -1 l 524 -1 l 512 -1 l 444 -1 l 428 -1 l 376 -1 l 304 -1 l 292 -1 l 276 -1 l 260 -1 l 232 -1 l 200 -1 l 132 -1 l 116 -1 l 64 -1 l 44 -1 l 28 -1 l 0 -1 l 0 60 l 48 60 l 60 60 l 60 187 l 112 187 l 124 187 l 124 315 l 176 315 l 188 315 l 188 380 l 240 380 l 252 380 l 252 444 l 304 444 l 316 444 l 316 572 l 368 572 l 380 572 l 380 828 l 300 828 l 220 828 l 188 828 l 188 776 l 188 764 l 116 764 l 100 764 l 88 764 l 72 764 l 56 764 l 16 764 l 0 764 l 0 828 l 48 828 l 60 828 l 60 956 l 112 956 l 124 956 "},"3":{"ha":760,"x_min":0,"x_max":633,"o":"m 189 959 l 189 1019 l 237 1019 l 249 1019 l 317 1019 l 333 1019 l 349 1019 l 366 1019 l 381 1019 l 425 1019 l 498 1019 l 513 1019 l 538 1019 l 558 1019 l 582 1019 l 610 1019 l 634 1019 l 634 947 l 634 931 l 634 919 l 634 903 l 634 887 l 634 847 l 634 831 l 606 831 l 574 831 l 574 779 l 574 766 l 522 766 l 510 766 l 510 714 l 510 703 l 458 703 l 446 703 l 446 650 l 446 638 l 393 638 l 381 638 l 381 586 l 381 574 l 429 574 l 441 574 l 510 574 l 510 522 l 510 509 l 562 509 l 574 509 l 574 458 l 574 446 l 622 446 l 634 446 l 634 397 l 634 385 l 634 317 l 634 301 l 634 249 l 634 229 l 634 213 l 634 144 l 634 124 l 606 124 l 574 124 l 574 72 l 574 60 l 502 60 l 486 60 l 473 60 l 458 60 l 446 60 l 446 12 l 446 0 l 417 0 l 385 0 l 317 0 l 301 0 l 285 0 l 269 0 l 253 0 l 209 0 l 136 0 l 121 0 l 96 0 l 76 0 l 56 0 q 0 12 14 -9 l 0 60 l 48 60 l 60 60 l 60 124 l 132 124 l 149 124 l 161 124 l 176 124 l 189 124 l 189 189 l 237 189 l 249 189 l 317 189 l 333 189 l 349 189 l 366 189 l 381 189 l 381 253 l 433 253 l 446 253 l 446 381 l 393 381 l 381 381 l 381 446 l 333 446 l 321 446 l 253 446 l 237 446 l 220 446 l 205 446 l 189 446 l 189 509 l 136 509 l 124 509 l 124 638 l 176 638 l 189 638 l 189 703 l 241 703 l 253 703 l 253 766 l 325 766 l 341 766 l 353 766 l 369 766 l 381 766 l 381 831 l 333 831 l 321 831 l 253 831 l 237 831 l 184 831 l 165 831 l 149 831 l 80 831 l 60 831 l 60 959 l 132 959 l 149 959 l 161 959 l 176 959 l 189 959 "},"4":{"ha":734,"x_min":0,"x_max":633,"o":"m 381 955 l 381 1015 l 429 1015 l 441 1015 l 510 1015 l 526 1015 l 578 1015 l 598 1015 l 614 1015 l 634 1015 l 634 967 l 634 955 l 634 887 l 634 871 l 634 854 l 634 839 l 634 823 l 634 779 l 634 706 l 634 690 l 634 666 l 634 646 l 634 622 l 634 594 l 634 570 l 634 542 l 634 417 l 634 406 l 634 393 l 634 361 l 634 329 l 634 249 l 634 237 l 634 224 l 634 176 l 634 165 l 634 96 l 634 24 l 634 8 l 634 -4 l 562 -4 l 546 -4 l 534 -4 l 517 -4 l 502 -4 l 462 -4 l 446 -4 l 446 313 l 417 313 l 385 313 l 317 313 l 301 313 l 285 313 l 269 313 l 253 313 l 209 313 l 136 313 l 121 313 l 96 313 l 76 313 l 52 313 l 24 313 l 0 313 l 0 570 l 48 570 l 60 570 l 60 634 l 113 634 l 124 634 l 124 762 l 176 762 l 189 762 l 189 827 l 241 827 l 253 827 l 253 891 l 305 891 l 317 891 l 317 955 l 369 955 l 381 955 m 393 762 l 381 762 l 381 710 l 381 699 l 329 699 l 317 699 l 317 646 l 317 634 l 265 634 l 253 634 l 253 578 l 253 506 l 321 506 l 446 506 l 446 762 l 393 762 "},"5":{"ha":713,"x_min":-3,"x_max":627,"o":"m 56 439 l 56 1010 l 104 1010 l 117 1010 l 184 1010 l 200 1010 l 252 1010 l 324 1010 l 336 1010 l 352 1010 l 368 1010 l 416 1010 l 428 1010 l 496 1010 l 511 1010 l 564 1010 l 583 1010 l 600 1010 l 627 1010 l 627 974 l 627 922 l 627 910 l 627 898 l 627 886 l 600 886 l 568 886 l 568 834 l 568 822 l 519 822 l 507 822 l 439 822 l 424 822 l 380 822 l 312 822 l 260 822 l 248 822 l 248 774 l 248 762 l 248 694 l 248 678 l 248 663 l 248 646 l 248 631 l 296 631 l 308 631 l 376 631 l 392 631 l 435 631 l 504 631 l 504 578 l 504 567 l 555 567 l 568 567 l 568 443 l 568 431 l 568 359 l 568 347 l 568 299 l 568 288 l 568 220 l 568 203 l 568 188 l 568 172 l 568 119 l 515 119 l 504 119 l 504 68 l 504 56 l 452 56 l 439 56 l 439 8 l 439 -4 l 412 -4 l 380 -4 l 312 -4 l 296 -4 l 280 -4 l 264 -4 l 248 -4 l 204 -4 l 132 -4 l 117 -4 l 92 -4 l 73 -4 l 49 -4 l 20 -4 l -3 -4 l -3 56 l 45 56 l 56 56 l 56 119 l 128 119 l 144 119 l 156 119 l 172 119 l 184 119 l 184 184 l 232 184 l 244 184 l 312 184 l 328 184 l 344 184 l 360 184 l 376 184 l 376 439 l 328 439 l 316 439 l 248 439 l 232 439 l 180 439 l 160 439 l 144 439 l 77 439 l 56 439 "},"6":{"ha":691,"x_min":0,"x_max":568,"o":"m 316 959 l 316 1019 l 320 1019 l 316 1019 l 320 1019 l 392 1019 l 408 1019 l 420 1019 l 435 1019 l 448 1019 l 464 1019 l 515 1019 l 536 1019 l 551 1019 l 568 1019 l 568 970 l 568 959 l 540 959 l 508 959 l 508 907 l 508 895 l 456 895 l 444 895 l 444 843 l 444 831 l 372 831 l 356 831 l 344 831 l 328 831 l 316 831 l 316 779 l 316 766 l 363 766 l 376 766 l 444 766 l 444 715 l 444 703 l 496 703 l 508 703 l 508 650 l 508 639 l 555 639 l 568 639 l 568 591 l 568 578 l 568 511 l 568 494 l 568 443 l 568 371 l 568 359 l 568 342 l 568 262 l 568 251 l 568 235 l 568 215 l 568 191 l 540 191 l 508 191 l 508 139 l 508 127 l 456 127 l 444 127 l 444 75 l 444 62 l 392 62 l 380 62 l 380 15 l 380 3 l 332 3 l 320 3 l 252 3 l 236 3 l 192 3 l 124 3 l 124 62 l 72 62 l 60 62 l 60 127 l 32 127 l 0 127 l 0 639 l 48 639 l 60 639 l 60 766 l 112 766 l 124 766 l 124 831 l 176 831 l 188 831 l 188 895 l 240 895 l 252 895 l 252 959 l 304 959 l 316 959 m 264 574 l 252 574 l 252 523 l 252 511 l 200 511 l 188 511 l 188 463 l 188 451 l 188 382 l 188 367 l 188 323 l 188 255 l 240 255 l 252 255 l 251 220 l 252 191 l 316 191 l 316 255 l 380 254 l 380 302 l 380 511 l 328 511 l 316 511 l 316 574 l 264 574 "},"7":{"ha":674,"x_min":-3,"x_max":566,"o":"m 57 962 l 57 1022 l 105 1022 l 117 1022 l 185 1022 l 201 1022 l 217 1022 l 233 1022 l 250 1022 l 294 1022 l 366 1022 l 382 1022 l 406 1022 l 426 1022 l 450 1022 l 478 1022 l 502 1022 l 554 1022 l 566 1022 l 566 974 l 566 962 l 566 894 l 566 878 l 566 825 l 566 805 l 566 789 l 566 769 l 538 769 l 506 769 l 506 717 l 506 705 l 454 705 l 442 705 l 442 653 l 442 641 l 390 641 l 378 641 l 378 593 l 378 581 l 378 513 l 326 513 l 313 513 l 313 432 l 313 400 l 313 385 l 250 384 l 250 336 l 250 323 l 250 256 l 250 239 l 250 223 l 250 208 l 250 191 l 197 191 l 185 191 l 185 111 l 185 99 l 185 83 l 185 71 l 185 51 l 185 7 q 121 3 158 1 l 109 3 l 97 3 l 68 3 l 57 3 l 41 3 l -3 3 l -3 256 l 45 256 l 57 256 l 57 513 l 109 513 l 121 513 l 121 641 l 173 641 l 185 641 l 185 705 l 237 705 l 250 705 l 250 769 l 302 769 l 313 769 l 313 833 l 286 833 l 254 833 l 185 833 l 169 833 l 153 833 l 137 833 l 65 833 l 49 833 l -3 833 l -3 962 l 45 962 l 57 962 "},"8":{"ha":755,"x_min":3,"x_max":637,"o":"m 192 962 l 192 1023 l 273 1023 l 285 1023 l 300 1023 l 313 1023 l 333 1023 l 345 1023 l 401 1023 l 526 1023 l 578 1023 l 578 975 l 578 962 l 626 962 l 638 962 l 638 914 l 638 902 l 638 834 l 638 818 l 638 774 l 638 705 l 610 705 l 578 705 l 578 653 l 578 641 l 526 641 l 513 641 l 513 589 l 513 577 l 461 577 l 450 577 l 450 525 l 450 513 l 502 513 l 513 513 l 513 460 l 513 448 l 566 448 l 578 448 l 578 368 l 578 356 l 578 340 l 578 328 l 578 308 l 578 296 l 578 239 l 578 115 l 578 63 l 526 63 l 513 63 l 513 15 l 513 3 l 486 3 l 453 3 l 385 3 l 369 3 l 317 3 l 244 3 l 233 3 l 216 3 l 136 3 l 124 3 l 108 3 l 87 3 l 64 3 l 64 63 l 35 63 l 3 63 l 3 385 l 52 385 l 64 385 l 64 513 l 116 513 l 128 513 l 128 577 l 180 577 l 192 577 l 192 641 l 140 641 l 128 641 l 128 705 l 76 705 l 64 705 l 64 898 l 116 898 l 128 898 l 128 962 l 180 962 l 192 962 m 273 898 l 256 898 l 256 826 l 256 810 l 256 798 l 256 782 l 256 770 l 309 770 l 321 770 q 329 705 313 738 l 385 705 l 385 770 l 437 770 l 450 770 l 450 898 l 421 898 l 389 898 l 321 898 l 304 898 l 289 898 l 273 898 m 269 385 l 256 385 l 256 332 l 256 320 l 204 320 l 192 320 l 192 272 l 192 260 l 192 191 l 192 176 l 192 159 l 192 143 l 192 127 l 264 127 l 281 127 l 293 127 l 309 127 l 321 127 l 321 191 l 373 191 l 385 191 l 385 320 l 333 320 l 321 320 l 321 385 l 269 385 "},"9":{"ha":694,"x_min":3,"x_max":574,"o":"m 192 962 l 192 1023 l 240 1023 l 252 1023 l 321 1023 l 337 1023 l 381 1023 l 449 1023 l 449 975 l 449 962 l 501 962 l 513 962 l 513 910 l 513 898 l 562 898 l 574 898 l 574 850 l 574 838 l 574 770 l 574 753 l 574 701 l 574 629 l 574 617 l 574 601 l 574 585 l 574 505 l 574 492 l 574 477 l 574 465 l 574 444 l 574 400 l 574 385 l 546 385 l 513 385 l 513 336 l 513 324 l 513 256 l 461 256 l 449 256 l 449 203 l 449 191 l 397 191 l 385 191 l 385 139 l 385 127 l 333 127 l 321 127 l 321 75 l 321 63 l 269 63 l 256 63 l 256 15 l 256 3 l 229 3 l 196 3 l 128 3 l 112 3 l 60 3 l 39 3 l 24 3 l 3 3 l 3 63 l 52 63 l 64 63 l 64 127 l 116 127 l 128 127 l 128 191 l 200 191 l 216 191 l 229 191 l 244 191 l 256 191 l 256 256 l 229 256 l 196 256 l 128 256 l 128 320 l 76 320 l 64 320 l 64 385 l 35 385 l 3 385 l 3 834 l 52 834 l 64 834 l 64 898 l 116 898 l 128 898 l 128 962 l 180 962 l 192 962 m 325 898 l 256 898 l 256 846 l 256 834 l 204 834 l 192 834 l 192 753 l 192 742 l 192 726 l 192 713 l 192 693 l 192 682 l 192 625 l 192 500 l 192 448 l 264 448 l 281 448 l 292 448 l 309 448 l 321 448 l 321 513 l 373 513 l 385 513 l 385 898 l 337 898 l 325 898 "}," ":{"ha":264,"x_min":0,"x_max":0,"o":""},"!":{"ha":303,"x_min":-3,"x_max":183,"o":"m -3 244 l -3 1019 l 78 1019 l 90 1019 l 106 1019 l 118 1019 l 138 1019 l 183 1019 l 183 970 l 183 958 l 183 889 l 183 873 l 183 857 l 183 840 l 183 824 l 183 779 l 183 707 l 183 690 l 183 666 l 183 646 l 183 621 l 183 593 l 183 569 l 183 541 l 183 414 l 183 402 l 183 391 l 183 309 l 183 277 l 183 244 l 102 244 l 90 244 l 74 244 l 62 244 l 41 244 l -3 244 m -3 -4 l -3 186 l 78 186 l 90 186 l 106 186 l 118 186 l 138 186 l 183 186 l 183 113 l 183 97 l 183 85 l 183 69 l 183 53 l 183 12 l 183 -4 l 155 -4 l 126 -4 l 94 -4 l 25 -4 l 9 -4 l -3 -4 "},"\"":{"ha":493,"x_min":64,"x_max":428,"o":"m 98 642 l 172 642 l 203 831 l 203 994 l 64 994 l 64 831 l 98 642 m 322 642 l 395 642 l 428 831 l 428 994 l 289 994 l 289 831 l 322 642 "},"#":{"ha":772,"x_min":14,"x_max":755,"o":"m 70 -17 l 172 -17 l 231 272 l 444 272 l 385 -17 l 487 -17 l 546 272 l 755 272 l 755 373 l 566 373 l 617 619 l 755 619 l 755 720 l 637 720 l 696 1011 l 594 1011 l 535 720 l 321 720 l 380 1011 l 279 1011 l 220 720 l 14 720 l 14 619 l 199 619 l 149 373 l 14 373 l 14 272 l 129 272 l 70 -17 m 251 373 l 301 619 l 515 619 l 464 373 l 251 373 "},"$":{"ha":772,"x_min":50,"x_max":707,"o":"m 346 -143 l 418 -143 l 418 -20 q 627 71 546 -14 q 707 283 707 156 q 688 390 707 340 q 633 475 669 439 q 540 536 597 511 q 418 572 510 549 l 418 924 q 512 874 477 912 q 557 764 546 836 l 683 783 q 587 965 667 899 q 418 1027 524 1017 l 418 1086 l 346 1086 l 346 1027 q 163 961 224 1015 q 71 750 71 880 q 102 619 71 677 q 192 529 134 562 q 346 471 271 485 l 346 82 q 222 155 274 90 q 172 299 186 201 l 50 276 q 98 115 56 181 q 197 20 140 50 q 346 -21 254 -9 l 346 -143 m 346 926 l 346 588 q 228 655 262 613 q 193 760 193 697 q 234 869 193 823 q 346 926 275 915 m 418 82 l 418 454 q 549 381 516 422 q 582 275 582 341 q 535 144 582 197 q 418 82 489 91 "},"%":{"ha":1235,"x_min":81,"x_max":1149,"o":"m 81 755 q 141 553 81 620 q 291 486 201 486 q 444 554 382 486 q 506 748 506 622 q 445 944 506 878 q 290 1011 383 1011 q 134 937 188 1011 q 81 755 81 862 m 293 927 q 369 888 338 927 q 399 753 399 849 q 369 609 399 648 q 293 570 339 570 q 218 609 248 570 q 187 743 187 648 q 217 888 187 848 q 293 927 248 927 m 294 -37 l 395 -37 l 937 1011 l 838 1011 l 294 -37 m 724 233 q 784 31 724 98 q 934 -37 844 -37 q 1087 32 1025 -37 q 1149 226 1149 100 q 1088 422 1149 355 q 933 489 1027 489 q 777 415 831 489 q 724 233 724 340 m 937 405 q 1013 366 982 405 q 1043 231 1043 327 q 1013 87 1043 126 q 936 47 983 47 q 861 87 891 47 q 830 221 830 126 q 860 366 830 326 q 937 405 890 405 "},"&":{"ha":926,"x_min":60,"x_max":895,"o":"m 660 117 q 812 -23 739 24 l 895 74 q 739 227 808 136 q 827 441 795 311 l 701 468 q 653 330 684 389 l 475 557 q 663 799 663 657 q 598 949 663 886 q 431 1011 533 1011 q 255 945 325 1011 q 184 789 184 879 q 207 696 184 745 q 296 571 229 648 q 119 440 178 515 q 60 274 60 366 q 132 86 60 170 q 374 -17 222 -17 q 528 17 457 -17 q 660 117 600 50 m 412 635 l 357 699 q 322 752 334 727 q 310 801 310 778 q 343 879 310 847 q 425 911 376 911 q 506 879 473 911 q 538 795 538 846 q 514 718 538 753 q 412 635 491 682 m 583 214 q 489 125 548 159 q 376 91 431 91 q 239 156 288 91 q 191 281 191 221 q 226 381 191 331 q 359 491 260 432 l 583 214 "},"'":{"ha":265,"x_min":61,"x_max":200,"o":"m 92 642 l 168 642 l 200 828 l 200 994 l 61 994 l 61 828 l 92 642 "},"(":{"ha":463,"x_min":84,"x_max":412,"o":"m 325 -292 l 412 -292 q 210 359 210 33 q 239 614 210 488 q 304 810 262 716 q 412 1011 330 870 l 325 1011 q 136 669 197 841 q 84 360 84 522 q 154 6 84 177 q 325 -292 224 -165 "},")":{"ha":463,"x_min":84,"x_max":412,"o":"m 172 -292 q 342 6 272 -165 q 412 360 412 177 q 360 669 412 522 q 172 1011 299 841 l 84 1011 q 193 808 167 869 q 258 612 235 714 q 287 359 287 487 q 84 -292 287 33 l 172 -292 "},"*":{"ha":541,"x_min":43,"x_max":492,"o":"m 43 812 q 210 774 122 791 q 97 646 176 743 l 177 588 q 265 734 215 638 q 358 588 319 642 l 439 646 q 323 774 364 738 q 492 812 406 783 l 460 908 q 300 843 370 878 q 316 1011 314 944 l 218 1011 q 231 842 218 965 q 75 908 182 870 l 43 812 "},"+":{"ha":811,"x_min":77,"x_max":734,"o":"m 348 161 l 463 161 l 463 433 l 734 433 l 734 547 l 463 547 l 463 818 l 348 818 l 348 547 l 77 547 l 77 433 l 348 433 l 348 161 "},",":{"ha":254,"x_min":-3,"x_max":180,"o":"m 88 198 l 88 290 l 162 290 l 180 290 l 180 180 l 180 155 l 180 137 l 180 113 l 180 87 l 180 26 l 180 2 l 138 2 l 88 2 l 88 -72 l 88 -90 l 45 -90 l -3 -90 l -3 198 l 70 198 l 88 198 "},"-":{"ha":552,"x_min":7,"x_max":485,"o":"m 72 472 l 72 537 l 124 537 l 137 537 l 211 537 l 229 537 l 285 537 l 363 537 l 376 537 l 393 537 l 411 537 l 485 537 l 485 485 l 485 472 l 433 472 l 420 472 l 420 420 l 420 407 l 368 407 l 355 407 l 281 407 l 263 407 l 216 407 l 142 407 l 7 407 l 7 472 l 59 472 l 72 472 "},"‐":{"ha":552,"x_min":7,"x_max":485,"o":"m 72 472 l 59 472 l 7 472 l 7 407 l 142 407 l 216 407 l 263 407 l 281 407 l 355 407 l 368 407 l 420 407 l 420 420 l 420 472 l 433 472 l 485 472 l 485 485 l 485 537 l 411 537 l 393 537 l 376 537 l 363 537 l 285 537 l 229 537 l 211 537 l 137 537 l 124 537 l 72 537 l 72 472 "},".":{"ha":385,"x_min":3,"x_max":207,"o":"m 3 -26 l 3 177 l 92 177 l 105 177 l 123 177 l 136 177 l 158 177 l 207 177 l 207 89 l 207 75 l 207 58 l 207 44 l 207 22 l 207 -26 l 119 -26 l 105 -26 l 87 -26 l 74 -26 l 52 -26 l 3 -26 "},"/":{"ha":386,"x_min":0,"x_max":386,"o":"m 0 -17 l 98 -17 l 386 1011 l 288 1011 l 0 -17 "},":":{"ha":252,"x_min":0,"x_max":167,"o":"m 0 576 l 0 748 l 111 748 l 127 748 l 149 748 l 166 748 l 166 720 l 166 610 l 166 593 l 166 576 l 55 576 l 39 576 l 17 576 l 0 576 m 0 281 l 0 455 l 112 455 l 128 455 l 151 455 l 168 455 l 168 427 l 168 315 l 168 298 l 168 281 l 56 281 l 39 281 l 17 281 l 0 281 "},";":{"ha":386,"x_min":115,"x_max":262,"o":"m 123 547 l 262 547 l 262 686 l 123 686 l 123 547 m 123 0 l 193 0 q 172 -95 191 -62 q 115 -144 154 -127 l 149 -197 q 235 -124 208 -171 q 262 0 262 -77 l 262 139 l 123 139 l 123 0 "},"<":{"ha":629,"x_min":3,"x_max":495,"o":"m 388 896 l 388 948 l 495 948 l 495 886 l 495 872 l 495 861 l 495 848 l 495 833 l 495 799 l 495 785 l 471 785 l 443 785 l 443 741 l 443 730 l 398 730 l 388 730 l 388 685 l 388 675 l 342 675 l 332 675 l 332 629 l 332 619 l 288 619 l 277 619 l 277 574 l 277 564 l 232 564 l 222 564 l 222 501 l 222 488 l 222 477 l 222 463 l 222 453 l 267 453 l 277 453 l 277 408 l 277 397 l 322 397 l 332 397 l 332 353 l 332 342 l 377 342 l 388 342 l 388 297 l 388 287 l 433 287 l 443 287 l 443 241 l 443 231 l 485 231 l 495 231 l 495 169 l 495 155 l 495 144 l 495 131 l 495 117 l 495 82 l 495 68 l 388 68 l 388 121 l 342 121 l 332 121 l 332 176 l 288 176 l 277 176 l 277 231 l 232 231 l 222 231 l 222 287 l 176 287 l 166 287 l 166 342 l 121 342 l 111 342 l 111 397 l 66 397 l 56 397 l 56 453 l 31 453 l 3 453 l 3 564 l 45 564 l 56 564 l 56 619 l 100 619 l 111 619 l 111 675 l 156 675 l 166 675 l 166 730 l 211 730 l 222 730 l 222 785 l 267 785 l 277 785 l 277 841 l 322 841 l 332 841 l 332 896 l 377 896 l 388 896 "},"=":{"ha":811,"x_min":77,"x_max":734,"o":"m 734 585 l 734 699 l 77 699 l 77 585 l 734 585 m 734 283 l 734 397 l 77 397 l 77 283 l 734 283 "},">":{"ha":615,"x_min":3,"x_max":498,"o":"m 3 785 l 3 949 l 111 949 l 111 907 l 111 897 l 157 897 l 168 897 l 168 851 l 168 841 l 212 841 l 223 841 l 223 795 l 223 785 l 269 785 l 279 785 l 279 739 l 279 729 l 324 729 l 334 729 l 334 684 l 334 673 l 380 673 l 391 673 l 391 628 l 391 618 l 435 618 l 446 618 l 446 572 l 446 562 l 488 562 l 498 562 l 498 520 l 498 509 l 498 450 l 474 450 l 446 450 l 446 405 l 446 394 l 401 394 l 391 394 l 391 349 l 391 338 l 345 338 l 334 338 l 334 293 l 334 283 l 290 283 l 279 283 l 279 237 l 279 227 l 233 227 l 223 227 l 223 182 l 223 171 l 178 171 l 168 171 l 168 125 l 168 115 l 122 115 l 111 115 l 111 73 l 111 63 l 3 63 l 3 227 l 45 227 l 56 227 l 56 283 l 101 283 l 111 283 l 111 338 l 157 338 l 168 338 l 168 394 l 212 394 l 223 394 l 223 450 l 269 450 l 279 450 l 279 562 l 233 562 l 223 562 l 223 618 l 178 618 l 168 618 l 168 673 l 122 673 l 111 673 l 111 729 l 66 729 l 56 729 l 56 785 l 31 785 l 3 785 "},"?":{"ha":769,"x_min":0,"x_max":630,"o":"m 123 956 l 123 1016 l 203 1016 l 216 1016 l 231 1016 l 243 1016 l 263 1016 l 275 1016 l 331 1016 l 454 1016 l 507 1016 l 507 968 l 507 956 l 558 956 l 570 956 l 570 904 l 570 892 l 618 892 l 630 892 l 630 840 l 630 829 l 630 796 l 630 749 l 630 736 l 630 669 l 630 653 l 630 637 l 630 621 l 630 605 l 630 593 l 630 573 l 602 573 l 570 573 l 570 522 l 570 509 l 498 509 l 482 509 l 471 509 l 454 509 l 443 509 l 443 458 l 443 446 l 391 446 l 379 446 l 379 397 l 379 386 l 379 318 l 379 302 l 379 286 l 379 270 l 379 254 l 331 254 l 319 254 l 251 254 l 235 254 l 219 254 l 203 254 l 187 254 l 187 509 l 239 509 l 251 509 l 251 573 l 323 573 l 339 573 l 351 573 l 367 573 l 379 573 l 379 637 l 431 637 l 443 637 l 443 701 l 494 701 l 507 701 l 507 829 l 454 829 l 443 829 l 443 892 l 414 892 l 382 892 l 315 892 l 299 892 l 283 892 l 267 892 l 251 892 l 251 840 l 251 829 l 199 829 l 187 829 l 187 781 l 187 768 l 187 701 l 116 701 l 100 701 l 87 701 l 72 701 l 56 701 l 16 701 l 0 701 l 0 892 l 48 892 l 60 892 l 60 956 l 112 956 l 123 956 m 187 3 l 187 190 l 235 190 l 248 190 l 315 190 l 331 190 l 347 190 l 363 190 l 379 190 l 379 119 l 379 102 l 379 90 l 379 75 l 379 58 l 379 19 l 379 3 l 347 3 l 319 3 l 287 3 l 219 3 l 203 3 l 187 3 "},"@":{"ha":1179,"x_min":75,"x_max":1140,"o":"m 665 264 q 676 216 669 231 q 711 183 688 195 q 774 171 735 171 q 998 284 895 171 q 1112 574 1112 411 q 1058 785 1112 688 q 883 956 994 899 q 632 1013 772 1013 q 326 931 452 1013 q 132 699 200 850 q 75 437 75 574 q 123 208 75 314 q 234 59 160 123 q 414 -37 309 -5 q 644 -69 519 -69 q 876 -34 780 -69 q 1042 63 972 2 q 1140 184 1112 125 l 1038 184 q 889 64 989 113 q 642 14 790 14 q 391 62 505 14 q 218 209 278 109 q 159 446 159 308 q 218 692 159 577 q 387 869 278 807 q 627 930 496 930 q 838 882 743 930 q 981 751 933 833 q 1029 576 1029 669 q 992 419 1029 495 q 890 299 954 344 q 812 264 842 264 q 785 276 796 264 q 773 302 773 287 q 790 389 773 311 l 871 766 l 770 766 l 751 679 q 674 757 719 731 q 581 783 630 783 q 449 738 517 783 q 335 603 381 692 q 290 424 290 513 q 319 291 290 351 q 396 201 349 230 q 493 172 443 172 q 584 197 538 172 q 665 264 629 222 m 393 417 q 411 523 393 465 q 459 622 429 581 q 521 681 489 663 q 589 699 553 699 q 681 656 643 699 q 719 538 719 614 q 699 424 719 481 q 647 329 678 366 q 580 274 615 292 q 514 255 545 255 q 430 298 467 255 q 393 417 393 340 "},"A":{"ha":1006,"x_min":-3,"x_max":875,"o":"m 401 949 l 401 1013 l 457 1013 l 470 1013 l 470 962 l 470 949 l 526 949 l 538 949 l 538 894 l 538 881 l 593 881 l 606 881 l 606 804 l 606 787 l 606 774 l 606 758 l 606 745 l 662 745 l 675 745 l 675 668 l 675 651 l 675 638 l 675 621 l 675 608 l 730 608 l 743 608 l 743 532 l 743 515 l 743 502 l 743 485 l 743 472 l 798 472 l 811 472 l 811 340 q 875 336 840 333 l 875 284 l 875 271 l 875 199 l 875 182 l 875 165 l 875 148 l 875 71 l 875 54 l 875 -1 l 743 -1 l 743 131 l 687 131 l 675 131 l 675 336 l 623 336 l 610 336 l 538 336 l 521 336 l 474 336 l 401 336 l 401 280 l 401 267 l 325 267 l 308 267 l 295 267 l 278 267 l 265 267 l 265 212 l 265 199 l 210 199 l 197 199 l 197 122 l 197 105 l 197 92 l 197 75 l 197 58 l 197 16 l 197 -1 l 146 -1 l 133 -1 l 60 -1 l 60 62 l 31 62 l -3 62 l -3 267 l 47 267 l 60 267 l 60 404 l 116 404 l 129 404 l 129 540 l 184 540 l 197 540 l 197 745 l 252 745 l 265 745 l 265 881 l 321 881 l 334 881 l 334 949 l 389 949 l 401 949 m 414 813 l 401 813 l 401 762 l 401 749 l 401 676 l 401 659 l 401 642 l 401 625 l 401 608 l 346 608 l 334 608 l 334 532 l 334 515 l 334 502 l 334 485 l 334 472 l 385 472 l 397 472 l 470 472 l 487 472 l 504 472 l 521 472 l 538 472 l 538 676 l 483 676 l 470 676 l 470 813 l 414 813 "},"B":{"ha":881,"x_min":0,"x_max":743,"o":"m 0 131 l 0 1015 l 52 1015 l 64 1015 l 136 1015 l 154 1015 l 171 1015 l 188 1015 l 264 1015 l 281 1015 l 337 1015 l 337 963 l 337 951 l 389 951 l 401 951 l 474 951 l 474 895 l 474 882 l 529 882 l 542 882 l 542 827 l 542 814 l 597 814 l 610 814 l 610 763 l 610 750 l 610 677 l 610 661 l 610 613 l 610 541 l 666 541 l 679 541 l 679 486 l 679 473 l 730 473 l 743 473 l 743 395 l 743 378 l 743 328 l 743 315 l 743 242 l 743 225 l 743 170 l 743 148 l 743 131 l 713 131 l 679 131 l 679 -1 l 627 -1 l 614 -1 l 542 -1 l 525 -1 l 469 -1 l 393 -1 l 380 -1 l 363 -1 l 277 -1 l 264 -1 l 248 -1 l 227 -1 l 201 -1 l 179 -1 l 94 -1 l 64 -1 l 64 131 l 34 131 l 0 131 m 205 814 l 132 814 l 132 763 l 132 750 l 132 677 l 132 661 l 132 643 l 132 626 l 132 609 l 188 609 l 201 609 l 201 553 l 201 541 l 277 541 l 294 541 l 307 541 l 324 541 l 337 541 l 337 609 l 414 609 l 431 609 l 444 609 l 461 609 l 474 609 l 474 745 l 418 745 l 406 745 l 406 814 l 354 814 l 341 814 l 269 814 l 252 814 l 205 814 m 222 404 l 201 404 l 201 328 l 201 310 l 201 298 l 201 280 l 201 268 l 256 268 l 269 268 l 269 216 l 269 203 l 269 131 l 269 114 l 269 97 l 269 80 l 269 62 l 320 62 l 333 62 l 406 62 l 422 62 l 439 62 l 456 62 l 474 62 l 474 131 l 529 131 l 542 131 l 542 199 q 610 246 626 182 l 610 336 l 555 336 l 542 336 l 542 404 l 512 404 l 478 404 l 406 404 l 389 404 l 333 404 l 311 404 l 294 404 l 222 404 "},"C":{"ha":871,"x_min":0,"x_max":744,"o":"m 269 951 l 269 1016 l 321 1016 l 334 1016 l 406 1016 l 423 1016 l 471 1016 l 543 1016 l 543 964 l 543 951 l 599 951 l 612 951 l 612 901 l 612 888 l 612 815 l 612 798 l 612 781 l 612 764 l 612 747 l 556 747 l 543 747 l 543 691 l 543 678 l 513 678 l 479 678 l 406 678 l 406 747 l 329 747 l 312 747 l 299 747 l 282 747 l 269 747 l 269 691 l 269 678 l 214 678 l 201 678 l 201 593 l 201 580 l 201 563 l 201 550 l 201 529 l 201 516 l 201 456 l 201 323 l 201 268 l 256 268 l 269 268 l 269 212 l 269 199 l 325 199 l 338 199 l 338 144 l 338 131 l 389 131 l 402 131 l 475 131 l 492 131 l 509 131 l 526 131 l 543 131 l 543 199 l 599 199 l 612 199 l 612 268 l 667 268 l 680 268 l 680 336 l 731 336 l 744 336 l 744 285 l 744 272 l 744 199 l 744 182 l 744 165 l 744 149 l 744 131 l 714 131 l 680 131 l 680 75 l 680 63 l 624 63 l 612 63 l 612 12 l 612 -1 l 526 -1 l 513 -1 l 496 -1 l 483 -1 l 462 -1 l 449 -1 l 389 -1 l 256 -1 l 201 -1 l 201 63 l 145 63 l 132 63 l 132 131 l 77 131 l 64 131 l 64 268 l 34 268 l 0 268 l 0 815 l 52 815 l 64 815 l 64 884 l 120 884 l 132 884 l 132 951 l 210 951 l 227 951 l 239 951 l 256 951 l 269 951 "},"D":{"ha":878,"x_min":3,"x_max":746,"o":"m 3 131 l 3 1015 l 55 1015 l 67 1015 l 140 1015 l 157 1015 l 212 1015 l 290 1015 l 302 1015 l 319 1015 l 336 1015 l 409 1015 l 409 963 l 409 951 l 460 951 l 473 951 l 545 951 l 545 895 l 545 882 l 601 882 l 614 882 l 614 827 l 614 814 l 669 814 l 682 814 l 682 682 q 746 677 711 675 l 746 626 l 746 613 l 746 541 l 746 524 l 746 468 l 746 391 l 746 378 l 746 361 l 746 276 l 746 263 l 746 246 l 746 225 l 746 199 l 716 199 l 682 199 l 682 144 l 682 131 l 627 131 l 614 131 l 614 75 l 614 62 l 481 62 q 477 -1 475 34 l 392 -1 l 379 -1 l 362 -1 l 349 -1 l 328 -1 l 315 -1 l 255 -1 l 123 -1 l 67 -1 l 67 131 l 37 131 l 3 131 m 153 882 l 136 882 l 136 831 l 136 818 l 136 745 l 136 728 l 136 682 l 136 609 l 136 553 l 136 541 l 191 541 l 204 541 l 204 490 l 204 477 l 204 404 l 204 387 l 204 340 l 204 268 l 260 268 l 272 268 l 272 212 l 272 199 l 328 199 l 340 199 l 340 268 l 417 268 l 435 268 l 447 268 l 465 268 l 477 268 l 477 336 l 532 336 l 545 336 l 545 609 l 490 609 l 477 609 l 477 745 l 422 745 l 409 745 l 409 814 l 353 814 l 340 814 l 340 882 l 311 882 l 277 882 l 204 882 l 187 882 l 170 882 l 153 882 "},"E":{"ha":878,"x_min":3,"x_max":746,"o":"m 3 66 l 3 1017 l 55 1017 l 67 1017 l 140 1017 l 157 1017 l 212 1017 l 234 1017 l 281 1017 l 332 1017 l 345 1017 l 417 1017 l 435 1017 l 490 1017 l 541 1017 l 554 1017 l 627 1017 l 652 1017 l 682 1017 l 682 966 l 682 954 l 682 881 l 682 864 l 682 808 l 682 787 l 682 770 l 682 749 l 631 749 l 618 749 l 545 749 l 545 817 l 490 817 l 477 817 l 477 885 l 447 885 l 413 885 l 340 885 l 323 885 l 307 885 l 290 885 l 272 885 l 272 954 l 195 954 l 178 954 l 165 954 l 149 954 l 136 954 l 136 902 l 136 889 l 136 817 l 136 800 l 136 753 l 136 680 l 136 625 l 136 612 l 268 612 q 272 680 274 641 l 323 680 l 336 680 l 409 680 l 426 680 l 473 680 l 545 680 l 545 629 l 545 616 l 545 544 l 545 527 l 545 510 l 545 492 l 545 475 l 515 475 l 481 475 l 409 475 l 392 475 l 345 475 l 272 475 q 238 544 288 553 q 204 484 189 551 l 204 352 l 204 339 l 260 339 l 272 339 l 272 288 l 272 275 l 272 203 l 272 185 l 272 168 l 272 151 l 272 134 l 217 134 l 204 134 l 204 79 l 204 66 l 290 66 l 323 66 q 340 134 352 71 l 396 134 l 409 134 l 409 203 l 486 203 l 503 203 l 515 203 l 532 203 l 545 203 l 545 271 l 601 271 l 614 271 l 614 339 l 669 339 l 682 339 l 682 408 l 733 408 l 746 408 l 746 356 l 746 343 l 746 271 l 746 254 l 746 198 l 746 177 l 746 160 l 746 87 l 746 66 l 716 66 l 682 66 l 682 15 l 682 2 l 597 2 l 584 2 l 567 2 l 554 2 l 532 2 l 519 2 l 460 2 l 430 2 l 396 2 l 323 2 l 307 2 l 290 2 l 272 2 l 255 2 l 208 2 l 132 2 l 115 2 l 89 2 l 67 2 l 67 66 l 37 66 l 3 66 "},"F":{"ha":878,"x_min":0,"x_max":746,"o":"m 0 60 l 0 1016 l 52 1016 l 64 1016 l 137 1016 l 155 1016 l 210 1016 l 231 1016 l 279 1016 l 330 1016 l 343 1016 l 416 1016 l 433 1016 l 489 1016 l 541 1016 l 553 1016 l 626 1016 l 652 1016 l 682 1016 l 682 964 l 682 951 l 733 951 l 746 951 l 746 900 l 746 887 l 746 814 l 746 798 l 746 750 l 746 677 l 716 677 l 682 677 l 682 746 l 630 746 l 617 746 l 545 746 l 545 814 l 489 814 l 476 814 l 476 883 l 446 883 l 412 883 l 338 883 l 321 883 l 304 883 l 288 883 l 270 883 l 270 951 l 193 951 l 176 951 l 163 951 l 146 951 l 133 951 l 133 900 l 133 887 l 133 814 l 133 798 l 133 750 l 133 677 l 133 621 l 133 608 l 184 608 l 197 608 l 270 608 l 288 608 l 304 608 l 321 608 l 338 608 l 338 677 l 471 677 l 545 677 l 545 626 l 545 613 l 545 540 l 545 523 l 545 506 l 545 488 l 545 471 l 515 471 l 480 471 l 408 471 l 390 471 l 343 471 l 270 471 l 270 540 l 214 540 l 201 540 l 201 488 l 201 475 l 201 403 l 201 385 l 201 338 l 201 265 l 201 210 l 201 197 l 257 197 l 270 197 l 270 119 l 270 102 l 270 90 l 270 73 l 270 60 l 326 60 l 338 60 l 338 8 l 338 -5 l 309 -5 l 275 -5 l 201 -5 l 184 -5 l 137 -5 l 64 -5 l 64 60 l 35 60 l 0 60 "},"G":{"ha":881,"x_min":0,"x_max":743,"o":"m 269 951 l 269 1015 l 320 1015 l 333 1015 l 406 1015 l 422 1015 l 478 1015 l 499 1015 l 516 1015 l 589 1015 l 610 1015 l 610 963 l 610 951 l 666 951 l 679 951 l 679 895 l 679 882 l 730 882 l 743 882 l 743 831 l 743 818 l 743 745 l 743 728 l 743 711 l 743 694 l 743 677 l 713 677 l 679 677 l 679 745 l 623 745 l 610 745 l 610 814 l 555 814 l 542 814 l 542 882 l 465 882 l 448 882 l 435 882 l 418 882 l 406 882 l 406 827 l 406 814 l 329 814 l 311 814 l 299 814 l 281 814 l 269 814 l 269 763 l 269 750 l 269 677 l 214 677 l 201 677 l 201 626 l 201 613 l 201 541 l 201 524 l 201 477 l 201 404 l 201 349 l 201 336 l 256 336 l 269 336 l 269 280 l 269 268 l 324 268 l 337 268 l 337 212 l 337 199 l 397 199 l 474 199 l 474 268 l 529 268 l 542 268 l 542 336 l 486 336 l 474 336 l 474 404 l 418 404 l 406 404 l 406 541 l 456 541 l 469 541 l 542 541 l 559 541 l 576 541 l 593 541 l 670 541 l 687 541 l 743 541 l 743 455 l 743 443 l 743 425 l 743 413 l 743 391 l 743 378 l 743 319 l 743 186 l 743 131 l 713 131 l 679 131 l 679 75 l 679 62 l 623 62 l 610 62 l 610 12 l 610 -1 l 589 -1 l 538 -1 l 525 -1 l 452 -1 l 435 -1 l 380 -1 l 359 -1 l 341 -1 l 269 -1 l 269 62 l 239 62 l 205 62 l 132 62 l 132 131 l 77 131 l 64 131 l 64 268 l 34 268 l 0 268 l 0 741 q 64 745 28 748 l 64 882 l 119 882 l 132 882 l 132 951 l 209 951 l 227 951 l 239 951 l 256 951 l 269 951 "},"H":{"ha":881,"x_min":-3,"x_max":739,"o":"m -3 62 l -3 1015 l 129 1015 l 129 882 l 184 882 l 197 882 l 197 831 l 197 818 l 197 745 l 197 728 l 197 682 l 197 609 l 253 609 l 265 609 l 265 677 l 317 677 l 330 677 l 402 677 l 419 677 l 466 677 l 538 677 l 538 882 l 483 882 l 471 882 l 471 1015 l 522 1015 l 534 1015 l 607 1015 l 624 1015 l 680 1015 l 701 1015 l 718 1015 l 739 1015 l 739 963 l 739 951 l 739 878 l 739 861 l 739 806 l 739 728 l 739 715 l 739 699 l 739 613 l 739 600 l 739 583 l 739 532 l 739 519 l 739 447 l 739 361 l 739 349 l 739 332 l 739 319 l 739 298 l 739 285 l 739 225 l 739 191 l 739 157 l 739 24 l 739 12 l 739 -1 l 607 -1 l 607 336 l 551 336 l 538 336 l 538 404 l 483 404 l 471 404 l 471 473 l 440 473 l 406 473 l 334 473 l 317 473 l 270 473 l 197 473 l 197 395 l 197 378 l 197 366 l 197 349 l 197 336 l 201 336 l 197 336 l 205 336 l 201 336 l 205 336 l 265 336 l 265 285 l 265 272 l 265 199 l 265 182 l 265 165 l 265 148 l 265 71 l 265 54 l 265 -1 l 235 -1 l 201 -1 l 129 -1 l 112 -1 l 95 -1 l 78 -1 l 60 -1 l 60 62 l 31 62 l -3 62 "},"I":{"ha":456,"x_min":-3,"x_max":330,"o":"m 130 951 l 130 1016 l 206 1016 l 223 1016 l 236 1016 l 253 1016 l 271 1016 l 313 1016 l 330 1016 l 330 964 l 330 951 l 330 879 l 330 862 l 330 806 l 330 730 l 330 717 l 330 700 l 330 682 l 330 631 l 330 618 l 330 546 l 330 529 l 330 473 l 330 452 l 330 435 l 330 405 q 266 357 252 421 l 266 307 l 266 294 l 266 221 l 266 204 l 266 149 l 266 127 l 266 80 l 266 63 l 210 63 l 197 63 l 197 12 l 197 -1 l 146 -1 l 134 -1 l 61 -1 l 61 678 q -3 682 31 675 l -3 951 l 130 951 "},"J":{"ha":867,"x_min":-3,"x_max":743,"o":"m 542 952 l 542 1017 l 618 1017 l 636 1017 l 649 1017 l 666 1017 l 683 1017 l 726 1017 l 743 1017 l 743 965 l 743 952 l 743 880 l 743 862 l 743 845 l 743 828 l 743 810 l 743 764 l 743 686 l 743 669 l 743 643 l 743 622 l 743 596 l 743 566 l 743 541 l 743 510 l 743 377 l 743 364 l 743 351 l 743 266 l 743 231 l 743 197 l 743 163 l 743 128 l 713 128 l 679 128 l 679 73 l 679 60 l 623 60 l 610 60 l 610 8 l 610 -5 l 524 -5 l 511 -5 l 494 -5 l 481 -5 l 460 -5 l 447 -5 l 387 -5 l 254 -5 l 198 -5 l 198 60 l 146 60 l 134 60 l 61 60 l 61 197 l 31 197 l -3 197 l -3 403 l 48 403 l 61 403 l 61 471 l 113 471 l 125 471 l 198 471 l 216 471 l 233 471 l 250 471 l 267 471 l 267 420 l 267 407 l 267 334 l 267 317 l 267 270 l 267 197 l 323 197 l 336 197 l 336 141 l 336 128 l 413 128 l 430 128 l 443 128 q 473 197 488 123 l 529 197 l 542 197 l 542 677 l 486 677 l 473 677 l 473 815 l 417 815 l 404 815 l 404 952 l 481 952 l 498 952 l 511 952 l 529 952 l 542 952 "},"K":{"ha":856,"x_min":0,"x_max":739,"o":"m 0 62 l 0 1010 l 132 1010 l 132 959 l 132 946 l 132 874 l 132 857 l 132 802 l 132 725 l 132 712 l 132 695 l 132 678 l 132 606 l 187 606 l 199 606 l 199 674 l 255 674 l 268 674 l 268 742 l 323 742 l 336 742 l 336 878 l 391 878 l 404 878 l 404 1010 l 454 1010 l 467 1010 l 540 1010 l 540 959 l 540 946 l 591 946 l 604 946 l 675 946 l 675 895 l 675 882 l 675 810 l 621 810 l 608 810 l 608 755 l 608 742 l 552 742 l 540 742 l 540 687 l 540 674 l 484 674 l 471 674 l 471 623 l 471 610 l 471 538 l 471 522 l 471 505 l 471 487 l 471 470 l 527 470 l 540 470 l 540 415 l 540 402 l 595 402 l 608 402 l 608 347 l 608 334 l 663 334 l 675 334 l 675 279 l 675 267 l 726 267 l 739 267 l 739 216 l 739 203 l 739 130 l 739 113 l 739 96 l 739 79 l 739 62 l 709 62 l 675 62 l 675 12 l 675 -1 l 625 -1 l 612 -1 l 540 -1 l 540 130 l 484 130 l 471 130 l 471 267 l 416 267 l 404 267 l 404 402 l 349 402 l 336 402 l 336 538 l 280 538 l 268 538 l 268 483 l 268 470 l 212 470 l 199 470 l 199 415 l 199 330 l 199 317 l 199 300 l 199 288 l 199 267 l 255 267 l 268 267 l 268 211 l 268 198 l 268 122 l 268 105 l 268 92 l 268 75 l 268 62 l 268 45 l 268 -1 l 182 -1 l 98 -1 l 64 -1 l 64 62 l 34 62 l 0 62 "},"L":{"ha":874,"x_min":0,"x_max":743,"o":"m 64 880 l 64 1012 l 115 1012 l 128 1012 l 201 1012 l 201 960 l 201 948 l 201 875 l 201 858 l 201 802 l 201 726 l 201 713 l 201 696 l 201 679 l 201 627 l 201 614 l 201 542 l 201 525 l 201 469 l 201 448 l 201 431 l 201 401 l 256 401 l 269 401 l 269 350 l 269 337 l 269 264 l 269 248 l 269 230 l 269 213 l 269 196 l 320 196 l 333 196 l 406 196 l 423 196 l 440 196 l 457 196 q 474 264 486 201 l 526 264 l 538 264 l 611 264 l 628 264 l 684 264 l 705 264 l 722 264 l 743 264 l 743 213 l 743 200 l 743 127 l 713 127 l 680 127 l 680 72 l 680 59 l 602 59 l 585 59 l 572 59 l 555 59 l 543 59 l 543 8 l 543 -5 l 513 -5 l 478 -5 l 406 -5 l 389 -5 l 333 -5 l 256 -5 l 243 -5 l 227 -5 l 141 -5 l 128 -5 l 111 -5 l 90 -5 l 64 -5 l 64 59 l 34 59 l 0 59 l 0 880 l 52 880 l 64 880 "},"M":{"ha":1301,"x_min":0,"x_max":1156,"o":"m 0 -5 l 0 1016 l 133 1016 l 133 964 l 133 951 l 184 951 l 197 951 l 270 951 l 270 896 l 270 883 l 326 883 l 338 883 l 338 827 l 338 814 l 390 814 l 403 814 l 475 814 l 475 759 l 475 746 l 531 746 l 544 746 l 544 690 l 544 677 l 600 677 l 613 677 l 613 746 l 669 746 l 682 746 l 682 883 l 737 883 l 750 883 l 750 951 l 806 951 l 819 951 l 819 1016 l 870 1016 l 883 1016 l 956 1016 l 972 1016 l 1020 1016 l 1093 1016 l 1093 964 l 1093 951 l 1144 951 l 1157 951 l 1157 900 l 1157 887 l 1157 814 l 1157 798 l 1157 741 l 1157 720 l 1157 673 l 1157 621 l 1157 608 l 1157 536 l 1157 518 l 1157 463 l 1157 411 l 1157 398 l 1157 326 l 1157 239 l 1157 227 l 1157 210 l 1157 197 l 1157 176 l 1157 163 l 1157 102 l 1157 25 l 1157 8 l 1157 -5 l 1105 -5 l 1093 -5 l 1020 -5 l 1003 -5 l 947 -5 l 926 -5 l 909 -5 l 887 -5 l 887 60 l 831 60 l 819 60 l 819 197 l 874 197 l 887 197 l 887 334 l 943 334 l 956 334 l 956 540 l 1011 540 l 1024 540 l 1024 746 l 947 746 l 930 746 l 917 746 l 900 746 l 887 746 l 887 690 l 887 677 l 831 677 l 819 677 l 819 621 l 819 608 l 763 608 l 750 608 l 750 557 l 750 544 l 750 471 l 750 454 l 750 407 l 750 334 l 694 334 l 682 334 l 682 283 l 682 270 l 682 197 l 625 197 l 613 197 l 613 141 l 613 128 l 557 128 l 544 128 l 544 334 l 488 334 l 475 334 l 475 471 l 420 471 l 407 471 l 407 608 l 351 608 l 338 608 l 338 677 l 283 677 l 270 677 l 270 746 l 214 746 l 201 746 l 201 814 l 146 814 l 133 814 l 133 737 l 133 720 l 133 707 l 133 690 l 133 673 l 133 630 q 201 608 132 596 l 201 557 l 201 544 l 201 471 l 201 454 l 201 407 l 201 334 l 257 334 l 270 334 l 270 257 l 270 239 l 270 227 l 270 210 l 270 197 l 326 197 l 338 197 l 338 145 l 338 132 l 338 60 l 283 60 l 270 60 l 270 8 l 270 -5 l 240 -5 l 205 -5 l 133 -5 l 116 -5 l 60 -5 l 39 -5 l 22 -5 l 0 -5 "},"N":{"ha":942,"x_min":-3,"x_max":808,"o":"m -3 63 l -3 1016 l 48 1016 l 61 1016 l 134 1016 l 151 1016 l 206 1016 l 227 1016 l 244 1016 l 266 1016 l 266 964 l 266 951 l 321 951 l 334 951 l 334 897 l 334 884 l 390 884 l 403 884 l 403 828 l 403 815 l 458 815 l 471 815 l 471 738 l 471 721 l 471 708 l 471 691 l 471 678 l 526 678 l 539 678 l 539 602 l 539 584 l 539 572 l 539 554 l 539 541 l 595 541 l 608 541 l 608 884 q 539 892 574 876 l 539 1016 l 591 1016 l 604 1016 l 676 1016 l 693 1016 l 749 1016 l 770 1016 l 787 1016 l 808 1016 l 808 964 l 808 951 l 808 879 l 808 862 l 808 806 l 808 785 l 808 738 l 808 687 l 808 674 l 808 602 l 808 584 l 808 529 l 808 477 l 808 465 l 808 392 l 808 307 l 808 294 l 808 277 l 808 264 l 808 242 l 808 229 l 808 170 l 808 93 l 808 75 l 808 63 l 779 63 l 745 63 l 745 12 l 745 -1 l 693 -1 l 680 -1 l 608 -1 l 608 268 l 552 268 l 539 268 l 539 405 l 484 405 l 471 405 l 471 473 l 415 473 l 403 473 l 403 610 l 351 610 l 338 610 l 266 610 l 266 678 l 214 678 l 210 678 l 214 678 q 197 669 201 677 l 197 618 l 197 606 l 197 533 l 197 516 l 197 460 l 197 439 l 197 422 l 197 405 l 253 405 l 266 405 l 266 319 l 266 307 l 266 290 l 266 277 l 266 255 l 266 242 l 266 229 l 266 144 l 266 131 l 321 131 l 334 131 l 334 71 l 334 -1 l 201 -1 l 189 -1 l 112 -1 l 99 -1 l 61 -1 l 61 63 l 31 63 l -3 63 "},"O":{"ha":881,"x_min":0,"x_max":743,"o":"m 132 951 l 132 1015 l 218 1015 l 231 1015 l 248 1015 l 260 1015 l 281 1015 l 294 1015 l 354 1015 l 486 1015 l 542 1015 l 542 963 l 542 951 l 597 951 l 610 951 l 610 895 l 610 882 l 666 882 l 679 882 l 679 806 l 679 788 l 679 776 l 679 758 l 679 745 q 743 741 709 749 l 743 690 l 743 677 l 743 605 l 743 588 l 743 570 l 743 553 l 743 536 l 743 490 l 743 413 l 743 395 l 743 370 l 743 349 l 743 323 l 743 293 l 743 268 l 743 212 l 743 199 l 713 199 l 679 199 l 679 148 l 679 135 l 679 62 l 623 62 l 610 62 l 610 12 l 610 -1 l 525 -1 l 512 -1 l 495 -1 l 482 -1 l 461 -1 l 448 -1 l 389 -1 l 256 -1 l 201 -1 l 201 62 l 145 62 l 132 62 l 132 131 l 77 131 l 64 131 l 64 268 l 34 268 l 0 268 l 0 814 l 52 814 l 64 814 l 64 951 l 119 951 l 132 951 m 286 882 l 269 882 l 269 827 l 269 814 l 214 814 l 201 814 l 201 763 l 201 750 l 201 677 l 201 661 l 201 643 l 201 626 l 201 609 l 201 562 l 201 486 l 201 468 l 201 443 l 201 421 l 201 395 l 201 323 l 201 298 l 201 268 l 256 268 l 269 268 l 269 191 l 269 174 l 269 161 l 269 144 l 269 131 l 320 131 l 333 131 l 406 131 l 422 131 l 439 131 l 456 131 l 474 131 l 474 268 l 529 268 l 542 268 l 542 745 l 486 745 l 474 745 l 474 882 l 444 882 l 410 882 l 337 882 l 320 882 l 303 882 l 286 882 "},"P":{"ha":840,"x_min":0,"x_max":695,"o":"m 188 958 l 188 1017 l 236 1017 l 248 1017 l 315 1017 l 332 1017 l 376 1017 l 444 1017 l 444 969 l 444 958 l 492 958 l 503 958 l 571 958 l 571 905 l 571 893 l 623 893 l 635 893 l 635 821 l 635 806 l 635 793 l 635 778 l 635 766 l 683 766 l 695 766 l 695 718 l 695 706 l 695 637 l 695 622 l 695 570 l 695 550 l 695 534 l 695 466 l 695 446 l 667 446 l 635 446 l 635 394 l 635 382 l 555 382 l 543 382 l 528 382 l 515 382 l 495 382 l 484 382 l 427 382 l 304 382 l 252 382 l 252 446 l 200 446 l 188 446 l 188 374 l 188 358 l 188 347 l 188 330 l 188 318 l 239 318 l 252 318 l 252 271 l 252 258 l 252 191 l 252 174 l 252 159 l 252 142 l 252 127 q 315 111 311 136 l 315 31 l 315 19 l 315 3 l 288 3 l 256 3 l 188 3 l 172 3 l 128 3 l 60 3 l 60 62 l 32 62 l 0 62 l 0 637 q 60 682 74 623 l 60 958 l 132 958 l 148 958 l 160 958 l 176 958 l 188 958 m 256 829 l 188 829 l 188 782 l 188 770 l 188 702 l 188 686 l 188 642 l 188 574 l 188 522 l 188 510 l 236 510 l 248 510 l 315 510 l 332 510 l 376 510 l 444 510 l 444 574 q 507 606 515 559 l 507 766 l 456 766 l 444 766 l 444 829 l 416 829 l 384 829 l 315 829 l 300 829 l 256 829 "},"Q":{"ha":956,"x_min":3,"x_max":816,"o":"m 136 951 l 136 1016 l 222 1016 l 234 1016 l 252 1016 l 264 1016 l 286 1016 l 298 1016 l 358 1016 l 491 1016 l 547 1016 l 547 964 l 547 951 l 602 951 l 615 951 l 615 897 l 615 884 l 671 884 l 684 884 l 684 806 l 684 789 l 684 777 l 684 760 l 684 747 l 739 747 l 751 747 l 751 661 l 751 648 l 751 631 l 751 618 l 751 597 l 751 546 l 751 533 l 751 460 l 751 443 l 751 426 l 751 409 l 751 332 l 751 315 l 751 294 l 751 268 l 696 268 l 684 268 l 684 212 l 684 199 l 816 199 l 816 123 l 816 106 l 816 93 l 816 75 l 816 58 l 816 16 l 816 -1 l 684 -1 q 671 63 694 47 l 615 63 l 615 12 l 615 -1 l 530 -1 l 517 -1 l 499 -1 l 486 -1 l 465 -1 l 452 -1 l 393 -1 l 260 -1 l 204 -1 l 204 63 l 149 63 l 136 63 l 136 131 l 80 131 l 68 131 l 68 268 q 3 272 37 264 l 3 815 l 55 815 l 68 815 l 68 951 l 123 951 l 136 951 m 354 884 l 341 884 l 341 828 l 341 815 l 286 815 l 273 815 l 273 764 l 273 751 l 273 678 l 217 678 l 204 678 l 204 627 l 204 614 l 204 541 l 204 524 l 204 469 l 204 392 l 204 379 l 204 362 l 204 277 l 204 264 l 204 247 l 204 225 l 204 199 l 260 199 l 273 199 l 273 144 l 273 131 l 328 131 l 341 131 l 341 75 l 341 63 l 418 63 l 435 63 l 448 63 l 465 63 l 478 63 l 478 131 l 422 131 l 410 131 l 410 268 l 354 268 l 341 268 l 341 405 l 397 405 l 410 405 l 410 349 l 410 336 l 465 336 l 478 336 q 486 268 470 302 l 547 268 l 547 747 l 491 747 l 478 747 l 478 815 l 422 815 l 410 815 l 410 884 l 354 884 "},"R":{"ha":881,"x_min":0,"x_max":746,"o":"m 201 951 l 201 1016 l 253 1016 l 266 1016 l 338 1016 l 356 1016 l 403 1016 l 476 1016 l 476 964 l 476 951 l 528 951 l 541 951 l 613 951 l 613 896 l 613 883 l 669 883 l 682 883 l 682 806 l 682 789 l 682 776 l 682 759 l 682 746 l 733 746 l 746 746 l 746 694 l 746 682 l 746 608 l 746 591 l 746 544 l 746 471 l 716 471 l 682 471 l 682 416 l 682 403 l 626 403 l 613 403 l 613 326 l 613 309 l 613 296 l 613 278 l 613 265 l 669 265 l 682 265 l 682 210 l 682 197 l 733 197 l 746 197 l 746 145 l 746 132 l 746 60 l 716 60 l 682 60 l 682 8 l 682 -5 l 630 -5 l 617 -5 l 545 -5 l 545 60 l 489 60 l 476 60 l 476 197 l 420 197 l 408 197 l 408 334 l 351 334 l 338 334 l 338 403 l 262 403 l 244 403 l 231 403 l 214 403 l 201 403 l 201 347 l 201 334 l 257 334 l 270 334 l 270 283 l 270 270 l 270 197 l 270 180 l 270 163 l 270 145 l 270 128 l 326 128 l 338 128 l 338 -5 l 309 -5 l 275 -5 l 201 -5 l 184 -5 l 168 -5 l 150 -5 l 73 -5 l 56 -5 l 0 -5 l 0 951 l 52 951 l 64 951 l 137 951 l 155 951 l 201 951 m 155 814 l 133 814 l 133 763 l 133 750 l 133 677 l 133 660 l 133 643 l 133 626 l 133 608 l 189 608 l 201 608 l 201 553 l 201 540 l 253 540 l 266 540 l 338 540 l 356 540 l 403 540 l 476 540 l 476 608 q 545 621 530 598 l 545 746 l 489 746 l 476 746 l 476 814 l 446 814 l 412 814 l 338 814 l 321 814 l 266 814 l 244 814 l 227 814 l 155 814 "},"S":{"ha":800,"x_min":-3,"x_max":672,"o":"m 266 951 l 266 1016 l 317 1016 l 330 1016 l 403 1016 l 420 1016 l 475 1016 l 497 1016 l 514 1016 l 587 1016 l 608 1016 l 608 964 l 608 951 l 659 951 l 672 951 l 672 901 l 672 888 l 672 815 l 672 798 l 672 781 l 672 764 l 672 747 l 540 747 l 540 815 l 509 815 l 475 815 l 403 815 l 403 884 l 347 884 l 334 884 l 334 828 l 334 815 l 279 815 l 266 815 l 266 760 l 266 747 l 321 747 l 334 747 l 334 691 l 334 678 l 386 678 l 399 678 l 471 678 l 471 623 l 471 610 l 527 610 l 540 610 l 540 554 l 540 541 l 595 541 l 608 541 l 608 465 l 608 448 l 608 435 l 608 418 l 608 405 l 659 405 l 672 405 l 672 353 l 672 340 l 672 268 l 672 251 l 672 204 l 672 131 l 642 131 l 608 131 l 608 75 l 608 63 l 531 63 l 514 63 l 501 63 l 484 63 l 471 63 l 471 12 l 471 -1 l 441 -1 l 407 -1 l 334 -1 l 317 -1 l 262 -1 l 240 -1 l 223 -1 l 151 -1 l 129 -1 l 129 63 l 73 63 l 61 63 l 61 131 l 31 131 l -3 131 l -3 268 l 129 268 l 129 212 l 129 199 l 184 199 l 197 199 l 197 144 l 197 131 l 258 131 l 334 131 l 334 199 l 390 199 l 403 199 l 403 405 l 347 405 l 334 405 l 334 473 l 279 473 l 266 473 l 266 541 l 210 541 l 197 541 l 197 610 l 142 610 l 129 610 l 129 678 l 73 678 l 61 678 l 61 884 l 117 884 l 129 884 l 129 951 l 206 951 l 223 951 l 236 951 l 253 951 l 266 951 "},"T":{"ha":878,"x_min":0,"x_max":746,"o":"m 0 814 l 0 1016 l 52 1016 l 64 1016 l 137 1016 l 155 1016 l 172 1016 l 189 1016 l 205 1016 l 253 1016 l 330 1016 l 347 1016 l 373 1016 l 395 1016 l 420 1016 l 450 1016 l 476 1016 l 532 1016 l 545 1016 q 549 951 541 985 l 635 951 l 648 951 l 665 951 l 677 951 l 699 951 l 746 951 l 746 900 l 746 887 l 746 814 l 716 814 l 682 814 l 609 814 l 591 814 l 545 814 l 545 759 l 545 746 l 489 746 l 476 746 l 476 703 l 476 651 l 476 639 l 476 566 l 476 549 l 476 493 l 476 471 l 532 471 l 545 471 l 545 385 l 545 372 l 545 355 l 545 342 l 545 321 l 545 309 l 545 248 l 545 115 l 545 60 l 489 60 l 476 60 l 476 8 l 476 -5 l 446 -5 l 412 -5 l 338 -5 l 321 -5 l 304 -5 l 288 -5 l 270 -5 l 270 814 l 240 814 l 205 814 l 133 814 l 116 814 l 60 814 l 39 814 l 22 814 l 0 814 "},"U":{"ha":867,"x_min":-3,"x_max":741,"o":"m -3 131 l -3 1016 l 129 1016 l 129 964 l 129 951 l 129 879 l 129 862 l 129 845 l 129 828 l 129 810 l 129 764 l 129 687 l 129 669 l 129 644 l 129 623 l 129 597 l 129 567 l 129 541 l 129 486 l 129 473 l 184 473 l 197 473 l 197 422 l 197 409 l 197 336 l 197 319 l 197 302 l 197 285 l 197 268 l 253 268 l 266 268 l 266 212 l 266 199 l 317 199 l 330 199 l 403 199 l 420 199 l 437 199 l 454 199 l 471 199 l 471 268 l 527 268 l 540 268 l 540 610 q 471 631 471 599 l 471 951 l 548 951 l 566 951 l 578 951 l 595 951 l 608 951 l 608 1016 l 741 1016 l 741 964 l 741 951 l 741 879 l 741 862 l 741 806 l 741 785 l 741 768 l 741 695 l 741 644 l 741 631 l 741 559 l 741 541 l 741 486 l 741 456 l 741 370 l 741 357 l 741 340 l 741 328 l 741 307 l 741 259 l 741 199 l 711 199 l 676 199 l 676 149 l 676 136 l 676 63 l 621 63 l 608 63 l 608 12 l 608 -1 l 557 -1 l 544 -1 l 471 -1 l 454 -1 l 437 -1 l 420 -1 l 403 -1 l 356 -1 l 279 -1 l 262 -1 l 236 -1 l 215 -1 l 189 -1 l 117 -1 l 91 -1 l 61 -1 l 61 131 l 31 131 l -3 131 "},"V":{"ha":1017,"x_min":0,"x_max":880,"o":"m 64 948 l 64 1012 l 115 1012 l 128 1012 l 201 1012 l 218 1012 l 235 1012 l 252 1012 l 269 1012 l 269 926 l 269 913 l 269 897 l 269 884 l 269 863 l 269 850 l 269 832 l 269 820 q 338 811 298 808 l 338 726 l 338 713 l 338 696 l 338 683 l 338 662 l 338 649 l 338 589 l 338 456 l 338 401 l 393 401 l 406 401 l 406 469 l 462 469 l 474 469 l 474 606 l 530 606 l 543 606 l 543 743 l 598 743 l 611 743 l 611 811 l 667 811 l 680 811 l 680 948 l 735 948 l 748 948 l 748 1012 l 880 1012 l 880 935 l 880 918 l 880 905 l 880 888 l 880 871 l 880 828 l 880 811 l 850 811 l 816 811 l 816 760 l 816 747 l 816 674 l 761 674 l 748 674 l 748 623 l 748 610 l 748 538 l 692 538 l 680 538 l 680 486 l 680 473 l 680 401 l 624 401 l 611 401 l 611 350 l 611 337 l 611 264 l 555 264 l 543 264 l 543 213 l 543 200 l 543 127 l 487 127 l 474 127 l 474 77 l 474 64 l 474 8 l 474 -5 l 444 -5 l 410 -5 l 338 -5 l 321 -5 l 303 -5 l 286 -5 l 269 -5 l 269 59 l 214 59 l 201 59 l 201 401 q 132 422 132 390 l 132 743 l 77 743 l 64 743 l 64 811 l 34 811 l 0 811 l 0 948 l 52 948 l 64 948 "},"W":{"ha":1427,"x_min":0,"x_max":1298,"o":"m 64 954 l 64 1019 l 116 1019 l 129 1019 l 202 1019 l 219 1019 l 237 1019 l 254 1019 l 271 1019 l 271 967 l 271 954 l 271 881 l 271 864 l 271 817 l 327 817 l 340 817 l 340 765 l 340 752 l 340 679 l 340 662 l 340 614 l 340 541 l 395 541 l 408 541 l 408 486 l 408 473 l 465 473 l 477 473 l 477 610 l 533 610 l 546 610 l 546 817 l 602 817 l 615 817 l 615 885 l 667 885 l 680 885 l 753 885 l 770 885 l 787 885 l 804 885 l 821 885 l 821 833 l 821 821 l 821 748 l 821 730 l 821 683 l 821 610 l 878 610 l 890 610 l 890 533 l 890 515 l 890 503 l 890 486 l 890 473 l 946 473 l 959 473 l 959 817 l 1015 817 l 1028 817 l 1028 1019 l 1080 1019 l 1093 1019 l 1165 1019 l 1183 1019 l 1200 1019 l 1217 1019 l 1234 1019 l 1234 967 l 1234 954 l 1286 954 l 1299 954 l 1299 903 l 1299 890 l 1299 817 l 1269 817 l 1234 817 l 1234 765 l 1234 752 l 1234 679 l 1234 662 l 1234 644 l 1234 627 l 1234 610 l 1178 610 l 1165 610 l 1165 559 l 1165 546 l 1165 473 l 1165 455 l 1165 408 l 1165 335 l 1109 335 l 1097 335 l 1097 201 l 1097 189 l 1097 111 l 1097 98 q 1028 60 1110 46 l 1028 8 l 1028 -5 l 972 -5 l 959 -5 l 903 -5 l 890 -5 l 890 197 l 834 197 l 821 197 l 821 335 l 766 335 l 753 335 l 753 473 l 696 473 l 684 473 l 684 416 l 684 404 l 628 404 l 615 404 l 615 352 l 615 339 l 615 266 l 559 266 l 546 266 l 546 214 l 546 201 l 546 129 l 490 129 l 477 129 l 477 -5 l 447 -5 l 413 -5 l 340 -5 l 323 -5 l 305 -5 l 288 -5 l 271 -5 l 271 60 l 215 60 l 202 60 l 202 404 l 146 404 l 134 404 l 134 679 l 77 679 l 64 679 l 64 817 l 35 817 l 0 817 l 0 954 l 52 954 l 64 954 "},"X":{"ha":867,"x_min":-3,"x_max":746,"o":"m -3 749 l -3 1020 l 130 1020 l 130 968 l 130 956 l 186 956 l 199 956 l 199 899 l 199 886 l 255 886 l 268 886 l 268 831 l 268 818 l 324 818 l 337 818 l 337 740 l 337 723 l 337 710 l 337 692 l 337 680 l 393 680 l 406 680 l 406 818 l 462 818 l 475 818 l 475 956 l 530 956 l 544 956 l 544 1020 l 621 1020 l 638 1020 l 651 1020 l 669 1020 l 686 1020 l 729 1020 l 746 1020 l 746 943 l 746 925 l 746 912 l 746 895 l 746 878 l 746 835 l 746 818 l 716 818 l 682 818 l 682 766 l 682 753 l 682 680 l 625 680 l 612 680 l 612 628 l 612 615 l 612 542 l 557 542 l 544 542 l 544 486 l 544 473 l 600 473 l 612 473 l 612 417 l 612 404 l 669 404 l 682 404 l 682 327 l 682 309 l 682 296 l 682 279 l 682 267 l 733 267 l 746 267 l 746 215 l 746 202 l 746 129 l 746 111 l 746 56 l 746 34 l 746 17 l 746 -5 l 612 -5 l 612 60 l 557 60 l 544 60 l 544 197 l 488 197 l 475 197 l 475 267 l 418 267 l 406 267 l 406 336 l 350 336 l 337 336 l 337 283 l 337 271 l 337 197 l 281 197 l 268 197 l 268 142 l 268 129 l 212 129 l 199 129 l 199 73 l 199 60 l 143 60 l 130 60 l 130 8 l 130 -5 l -3 -5 l -3 197 l 48 197 l 61 197 l 61 267 l 117 267 l 130 267 l 130 404 l 186 404 l 199 404 l 199 473 l 255 473 l 268 473 l 268 542 l 212 542 l 199 542 l 199 611 l 143 611 l 130 611 l 130 680 l 74 680 l 61 680 l 61 749 l 31 749 l -3 749 "},"Y":{"ha":945,"x_min":0,"x_max":814,"o":"m 0 813 l 0 1015 l 77 1015 l 94 1015 l 107 1015 l 124 1015 l 141 1015 l 184 1015 l 201 1015 l 201 882 l 257 882 l 270 882 l 270 805 l 270 787 l 270 774 l 270 758 l 270 745 l 321 745 l 334 745 l 407 745 l 424 745 l 441 745 l 458 745 l 475 745 l 475 813 l 531 813 l 544 813 l 544 1015 l 595 1015 l 608 1015 l 681 1015 l 698 1015 l 754 1015 l 775 1015 l 792 1015 l 814 1015 l 814 937 l 814 920 l 814 907 l 814 890 l 814 873 l 814 830 l 814 813 l 784 813 l 749 813 l 749 762 l 749 749 l 749 676 l 694 676 l 681 676 l 681 621 l 681 608 l 625 608 l 612 608 l 612 552 l 612 539 l 535 539 l 518 539 l 505 539 l 488 539 q 475 535 482 540 l 475 458 l 475 441 l 475 428 l 475 411 l 475 398 l 475 380 l 475 363 l 475 278 l 475 265 l 531 265 l 544 265 l 544 214 l 544 201 l 544 128 l 544 111 l 544 64 l 544 8 l 544 -5 l 514 -5 l 479 -5 l 407 -5 l 390 -5 l 342 -5 l 270 -5 l 270 539 l 214 539 l 201 539 l 201 608 l 146 608 l 133 608 l 133 676 l 77 676 l 64 676 l 64 813 l 35 813 l 0 813 "},"Z":{"ha":881,"x_min":0,"x_max":743,"o":"m 0 677 l 0 1015 l 52 1015 l 64 1015 l 136 1015 l 154 1015 l 171 1015 l 188 1015 l 205 1015 l 252 1015 l 329 1015 l 346 1015 l 372 1015 l 393 1015 l 418 1015 l 448 1015 l 474 1015 l 529 1015 l 542 1015 l 542 963 l 542 951 l 593 951 l 606 951 l 679 951 l 679 895 l 679 882 l 730 882 l 743 882 l 743 827 l 743 814 l 713 814 l 679 814 l 679 758 l 679 745 l 623 745 l 610 745 l 610 690 l 610 677 l 555 677 l 542 677 l 542 622 l 542 609 l 486 609 l 474 609 l 474 558 l 474 545 l 474 473 l 418 473 l 406 473 l 406 421 l 406 408 l 406 336 l 350 336 l 337 336 l 337 259 l 337 242 l 337 229 l 337 212 l 337 199 l 414 199 l 431 199 l 444 199 l 461 199 l 474 199 l 474 268 l 525 268 l 538 268 l 610 268 l 627 268 l 683 268 l 704 268 l 722 268 l 739 268 q 743 170 745 227 l 743 123 l 743 45 l 743 33 l 743 -1 l 610 -1 q 606 62 614 29 l 576 62 l 542 62 l 469 62 l 452 62 l 435 62 l 418 62 l 363 62 q 337 -1 323 64 l 307 -1 l 273 -1 l 201 -1 l 184 -1 l 166 -1 l 149 -1 l 73 -1 l 56 -1 l 0 -1 l 0 199 l 52 199 l 64 199 l 64 336 l 119 336 l 132 336 l 132 404 l 188 404 l 201 404 l 201 541 l 256 541 l 269 541 l 269 609 l 324 609 l 337 609 l 337 677 l 393 677 l 406 677 l 406 745 l 461 745 l 474 745 l 474 814 l 444 814 l 410 814 l 337 814 l 320 814 l 273 814 l 201 814 l 201 758 l 201 745 l 123 745 l 106 745 l 94 745 l 77 745 l 64 745 l 64 690 l 64 677 l 34 677 l 0 677 "},"[":{"ha":386,"x_min":94,"x_max":363,"o":"m 94 -276 l 363 -276 l 363 -175 l 216 -175 l 216 893 l 363 893 l 363 994 l 94 994 l 94 -276 "},"\\":{"ha":386,"x_min":0,"x_max":386,"o":"m 288 -17 l 386 -17 l 98 1011 l 0 1011 l 288 -17 "},"]":{"ha":386,"x_min":26,"x_max":296,"o":"m 296 -276 l 296 994 l 26 994 l 26 893 l 174 893 l 174 -175 l 26 -175 l 26 -276 l 296 -276 "},"^":{"ha":652,"x_min":37,"x_max":615,"o":"m 162 468 l 325 873 l 492 468 l 615 468 l 374 1011 l 276 1011 l 37 468 l 162 468 "},"_":{"ha":1423,"x_min":-4,"x_max":1299,"o":"m 570 1012 q 1299 275 1293 1017 q 393 -254 1133 -439 q -4 306 70 -90 q 570 1012 0 862 m 636 954 q 600 909 601 948 q 541 939 583 938 q 541 850 497 901 q 651 865 595 834 l 636 850 l 636 836 l 769 828 q 812 777 775 792 q 901 696 880 766 q 857 674 873 697 l 908 623 l 945 623 q 1063 600 996 584 l 1107 563 q 1085 541 1103 545 q 1048 424 1105 476 q 1011 459 1044 451 q 1057 393 1024 430 q 1181 240 1052 248 q 1173 335 1221 287 q 1240 306 1201 327 q 636 954 1238 890 m 467 909 l 452 916 l 452 880 q 393 850 407 901 l 445 843 q 488 857 509 823 q 467 909 469 876 m 335 857 q 203 666 138 714 q 430 806 266 797 q 372 828 409 819 q 335 857 361 849 m 659 724 l 636 710 q 659 724 855 662 m 188 623 l 158 681 q 62 275 54 506 q 121 320 99 286 q 128 467 131 381 q 136 541 136 498 q 188 623 152 578 m 718 614 q 651 571 679 602 q 806 474 731 545 l 827 467 l 842 459 l 886 424 l 953 416 l 953 467 q 893 490 932 479 q 718 614 830 572 m 422 578 q 445 505 418 541 q 422 578 444 537 m 916 571 l 916 549 q 916 571 996 563 m 622 519 q 460 505 544 454 l 445 482 q 496 320 403 387 l 570 298 q 1100 -33 1116 396 q 1210 188 1177 58 q 1092 180 1160 139 q 1026 387 1038 265 q 865 372 954 354 q 622 519 779 497 m 165 283 q 70 269 130 246 q 496 -129 107 -138 l 534 -99 q 387 4 518 5 q 350 -56 378 -28 q 304 70 363 17 q 188 4 283 -49 l 188 26 q 165 283 334 -5 m 1217 247 q 1115 217 1185 203 q 1217 247 1209 125 "},"`":{"ha":463,"x_min":60,"x_max":315,"o":"m 315 810 l 224 1000 l 60 1000 l 217 810 l 315 810 "},"a":{"ha":899,"x_min":-3,"x_max":762,"o":"m 349 827 l 349 883 l 398 883 l 410 883 l 410 839 l 410 827 l 458 827 l 469 827 l 469 779 l 469 768 l 517 768 l 528 768 l 528 701 l 528 686 l 528 675 l 528 660 l 528 649 l 576 649 l 588 649 l 588 582 l 588 568 l 588 556 l 588 541 l 588 530 l 635 530 l 647 530 l 647 463 l 647 448 l 647 437 l 647 422 l 647 411 l 695 411 l 707 411 l 707 296 q 762 292 732 290 l 762 248 l 762 236 l 762 173 l 762 158 l 762 144 l 762 129 l 762 62 l 762 47 l 762 -1 l 647 -1 l 647 114 l 599 114 l 588 114 l 588 292 l 543 292 l 532 292 l 469 292 l 454 292 l 413 292 l 349 292 l 349 244 l 349 233 l 283 233 l 268 233 l 257 233 l 242 233 l 231 233 l 231 184 l 231 173 l 182 173 l 171 173 l 171 106 l 171 92 l 171 80 l 171 65 l 171 51 l 171 14 l 171 -1 l 127 -1 l 115 -1 l 52 -1 l 52 54 l 26 54 l -3 54 l -3 233 l 41 233 l 52 233 l 52 351 l 100 351 l 112 351 l 112 471 l 160 471 l 171 471 l 171 649 l 220 649 l 231 649 l 231 768 l 279 768 l 290 768 l 290 827 l 338 827 l 349 827 m 361 709 l 349 709 l 349 664 l 349 652 l 349 589 l 349 574 l 349 559 l 349 545 l 349 530 l 301 530 l 290 530 l 290 463 l 290 448 l 290 437 l 290 422 l 290 411 l 335 411 l 346 411 l 410 411 l 424 411 l 439 411 l 454 411 l 469 411 l 469 589 l 420 589 l 410 589 l 410 709 l 361 709 "},"b":{"ha":776,"x_min":0,"x_max":645,"o":"m 0 113 l 0 881 l 45 881 l 56 881 l 119 881 l 134 881 l 149 881 l 163 881 l 230 881 l 244 881 l 293 881 l 293 836 l 293 825 l 338 825 l 349 825 l 412 825 l 412 777 l 412 766 l 459 766 l 471 766 l 471 718 l 471 707 l 519 707 l 530 707 l 530 663 l 530 651 l 530 588 l 530 574 l 530 532 l 530 469 l 578 469 l 589 469 l 589 422 l 589 410 l 633 410 l 645 410 l 645 343 l 645 328 l 645 284 l 645 273 l 645 210 l 645 195 l 645 147 l 645 128 l 645 113 l 619 113 l 589 113 l 589 -1 l 545 -1 l 534 -1 l 471 -1 l 456 -1 l 408 -1 l 341 -1 l 330 -1 l 315 -1 l 241 -1 l 230 -1 l 215 -1 l 197 -1 l 174 -1 l 155 -1 l 81 -1 l 56 -1 l 56 113 l 29 113 l 0 113 m 178 707 l 115 707 l 115 663 l 115 651 l 115 588 l 115 574 l 115 558 l 115 543 l 115 529 l 163 529 l 174 529 l 174 480 l 174 469 l 241 469 l 256 469 l 267 469 l 281 469 l 293 469 l 293 529 l 359 529 l 374 529 l 385 529 l 401 529 l 412 529 l 412 647 l 363 647 l 352 647 l 352 707 l 307 707 l 296 707 l 233 707 l 218 707 l 178 707 m 193 351 l 174 351 l 174 284 l 174 269 l 174 258 l 174 243 l 174 233 l 222 233 l 233 233 l 233 188 l 233 176 l 233 113 l 233 99 l 233 84 l 233 69 l 233 54 l 278 54 l 289 54 l 352 54 l 367 54 l 382 54 l 396 54 l 412 54 l 412 113 l 459 113 l 471 113 l 471 173 q 530 214 544 158 l 530 292 l 481 292 l 471 292 l 471 351 l 445 351 l 415 351 l 352 351 l 338 351 l 289 351 l 271 351 l 256 351 l 193 351 "},"c":{"ha":761,"x_min":0,"x_max":644,"o":"m 233 823 l 233 879 l 277 879 l 289 879 l 351 879 l 366 879 l 407 879 l 470 879 l 470 834 l 470 823 l 518 823 l 529 823 l 529 779 l 529 768 l 529 705 l 529 690 l 529 675 l 529 661 l 529 646 l 481 646 l 470 646 l 470 598 l 470 587 l 444 587 l 414 587 l 351 587 l 351 646 l 285 646 l 270 646 l 259 646 l 244 646 l 233 646 l 233 598 l 233 587 l 185 587 l 174 587 l 174 513 l 174 502 l 174 487 l 174 476 l 174 458 l 174 446 l 174 394 l 174 279 l 174 232 l 222 232 l 233 232 l 233 184 l 233 172 l 281 172 l 292 172 l 292 124 l 292 113 l 337 113 l 348 113 l 411 113 l 425 113 l 440 113 l 454 113 l 470 113 l 470 172 l 518 172 l 529 172 l 529 232 l 577 232 l 588 232 l 588 291 l 633 291 l 644 291 l 644 246 l 644 235 l 644 172 l 644 158 l 644 143 l 644 128 l 644 113 l 618 113 l 588 113 l 588 65 l 588 54 l 540 54 l 529 54 l 529 9 l 529 -1 l 454 -1 l 444 -1 l 429 -1 l 418 -1 l 399 -1 l 389 -1 l 337 -1 l 222 -1 l 174 -1 l 174 54 l 125 54 l 115 54 l 115 113 l 66 113 l 56 113 l 56 232 l 29 232 l 0 232 l 0 705 l 45 705 l 56 705 l 56 764 l 104 764 l 115 764 l 115 823 l 181 823 l 196 823 l 207 823 l 222 823 l 233 823 "},"d":{"ha":773,"x_min":3,"x_max":648,"o":"m 3 113 l 3 881 l 48 881 l 59 881 l 122 881 l 137 881 l 184 881 l 252 881 l 263 881 l 278 881 l 292 881 l 355 881 l 355 836 l 355 825 l 399 825 l 411 825 l 474 825 l 474 777 l 474 766 l 522 766 l 534 766 l 534 718 l 534 707 l 582 707 l 593 707 l 593 592 q 648 588 618 586 l 648 543 l 648 532 l 648 469 l 648 454 l 648 406 l 648 340 l 648 328 l 648 314 l 648 239 l 648 229 l 648 214 l 648 195 l 648 173 l 623 173 l 593 173 l 593 125 l 593 113 l 545 113 l 534 113 l 534 65 l 534 54 l 418 54 q 415 -1 413 29 l 341 -1 l 330 -1 l 315 -1 l 304 -1 l 285 -1 l 274 -1 l 222 -1 l 107 -1 l 59 -1 l 59 113 l 33 113 l 3 113 m 133 766 l 118 766 l 118 722 l 118 710 l 118 647 l 118 632 l 118 592 l 118 529 l 118 480 l 118 469 l 167 469 l 178 469 l 178 425 l 178 414 l 178 351 l 178 336 l 178 296 l 178 233 l 226 233 l 237 233 l 237 184 l 237 173 l 285 173 l 296 173 l 296 233 l 363 233 l 378 233 l 389 233 l 404 233 l 415 233 l 415 292 l 463 292 l 474 292 l 474 529 l 426 529 l 415 529 l 415 647 l 367 647 l 355 647 l 355 707 l 307 707 l 296 707 l 296 766 l 270 766 l 241 766 l 178 766 l 163 766 l 148 766 l 133 766 "},"e":{"ha":772,"x_min":3,"x_max":646,"o":"m 3 57 l 3 881 l 48 881 l 58 881 l 121 881 l 137 881 l 184 881 l 203 881 l 243 881 l 288 881 l 298 881 l 361 881 l 377 881 l 425 881 l 469 881 l 480 881 l 543 881 l 566 881 l 591 881 l 591 837 l 591 826 l 591 763 l 591 748 l 591 700 l 591 682 l 591 667 l 591 648 l 547 648 l 535 648 l 473 648 l 473 707 l 425 707 l 414 707 l 414 766 l 387 766 l 358 766 l 295 766 l 281 766 l 266 766 l 251 766 l 236 766 l 236 826 l 170 826 l 155 826 l 144 826 l 129 826 l 118 826 l 118 781 l 118 770 l 118 707 l 118 692 l 118 652 l 118 589 l 118 541 l 118 530 l 233 530 q 236 589 237 555 l 281 589 l 292 589 l 355 589 l 369 589 l 410 589 l 473 589 l 473 545 l 473 534 l 473 471 l 473 456 l 473 441 l 473 427 l 473 412 l 447 412 l 417 412 l 355 412 l 340 412 l 298 412 l 236 412 q 207 471 250 479 q 177 420 163 477 l 177 305 l 177 294 l 225 294 l 236 294 l 236 249 l 236 239 l 236 176 l 236 161 l 236 146 l 236 131 l 236 117 l 189 117 l 177 117 l 177 68 l 177 57 l 251 57 l 281 57 q 295 117 305 62 l 343 117 l 355 117 l 355 176 l 421 176 l 435 176 l 447 176 l 461 176 l 473 176 l 473 235 l 521 235 l 532 235 l 532 294 l 580 294 l 591 294 l 591 353 l 635 353 l 646 353 l 646 309 l 646 297 l 646 235 l 646 220 l 646 172 l 646 153 l 646 139 l 646 76 l 646 57 l 621 57 l 591 57 l 591 13 l 591 2 l 517 2 l 506 2 l 491 2 l 480 2 l 461 2 l 450 2 l 399 2 l 373 2 l 343 2 l 281 2 l 266 2 l 251 2 l 236 2 l 221 2 l 180 2 l 115 2 l 100 2 l 77 2 l 58 2 l 58 57 l 33 57 l 3 57 "},"f":{"ha":772,"x_min":0,"x_max":648,"o":"m 0 51 l 0 881 l 45 881 l 56 881 l 119 881 l 134 881 l 182 881 l 201 881 l 242 881 l 287 881 l 298 881 l 361 881 l 376 881 l 425 881 l 469 881 l 480 881 l 543 881 l 566 881 l 592 881 l 592 836 l 592 825 l 637 825 l 648 825 l 648 781 l 648 769 l 648 706 l 648 692 l 648 650 l 648 587 l 622 587 l 592 587 l 592 647 l 547 647 l 536 647 l 473 647 l 473 706 l 425 706 l 413 706 l 413 766 l 387 766 l 357 766 l 294 766 l 279 766 l 264 766 l 250 766 l 235 766 l 235 825 l 168 825 l 153 825 l 141 825 l 127 825 l 115 825 l 115 781 l 115 769 l 115 706 l 115 692 l 115 650 l 115 587 l 115 538 l 115 527 l 160 527 l 172 527 l 235 527 l 250 527 l 264 527 l 279 527 l 294 527 l 294 587 l 409 587 l 473 587 l 473 543 l 473 532 l 473 468 l 473 453 l 473 438 l 473 423 l 473 408 l 447 408 l 417 408 l 354 408 l 338 408 l 298 408 l 235 408 l 235 468 l 186 468 l 175 468 l 175 423 l 175 412 l 175 349 l 175 334 l 175 293 l 175 229 l 175 181 l 175 170 l 223 170 l 235 170 l 235 103 l 235 88 l 235 77 l 235 62 l 235 51 l 283 51 l 294 51 l 294 6 l 294 -5 l 268 -5 l 239 -5 l 175 -5 l 160 -5 l 119 -5 l 56 -5 l 56 51 l 30 51 l 0 51 "},"g":{"ha":774,"x_min":0,"x_max":646,"o":"m 233 826 l 233 882 l 278 882 l 290 882 l 353 882 l 368 882 l 416 882 l 434 882 l 449 882 l 512 882 l 530 882 l 530 837 l 530 826 l 579 826 l 590 826 l 590 778 l 590 767 l 634 767 l 646 767 l 646 722 l 646 711 l 646 648 l 646 633 l 646 618 l 646 604 l 646 589 l 620 589 l 590 589 l 590 648 l 542 648 l 530 648 l 530 707 l 482 707 l 471 707 l 471 767 l 404 767 l 390 767 l 378 767 l 363 767 l 353 767 l 353 718 l 353 707 l 286 707 l 271 707 l 260 707 l 245 707 l 233 707 l 233 663 l 233 652 l 233 589 l 186 589 l 174 589 l 174 544 l 174 532 l 174 469 l 174 455 l 174 414 l 174 351 l 174 302 l 174 292 l 223 292 l 233 292 l 233 243 l 233 233 l 282 233 l 293 233 l 293 184 l 293 173 l 345 173 l 412 173 l 412 233 l 460 233 l 471 233 l 471 292 l 422 292 l 412 292 l 412 351 l 363 351 l 353 351 l 353 469 l 397 469 l 408 469 l 471 469 l 486 469 l 501 469 l 516 469 l 583 469 l 597 469 l 646 469 l 646 395 l 646 385 l 646 370 l 646 359 l 646 340 l 646 329 l 646 277 l 646 162 l 646 113 l 620 113 l 590 113 l 590 65 l 590 54 l 542 54 l 530 54 l 530 10 l 530 -1 l 512 -1 l 467 -1 l 456 -1 l 393 -1 l 378 -1 l 330 -1 l 312 -1 l 296 -1 l 233 -1 l 233 54 l 208 54 l 178 54 l 115 54 l 115 113 l 66 113 l 56 113 l 56 233 l 29 233 l 0 233 l 0 644 q 56 648 25 650 l 56 767 l 104 767 l 115 767 l 115 826 l 182 826 l 197 826 l 208 826 l 223 826 l 233 826 "},"h":{"ha":783,"x_min":-3,"x_max":642,"o":"m -3 54 l -3 881 l 111 881 l 111 766 l 160 766 l 171 766 l 171 722 l 171 710 l 171 647 l 171 632 l 171 592 l 171 529 l 219 529 l 230 529 l 230 588 l 275 588 l 286 588 l 349 588 l 363 588 l 404 588 l 467 588 l 467 766 l 419 766 l 408 766 l 408 881 l 452 881 l 464 881 l 527 881 l 541 881 l 590 881 l 608 881 l 623 881 l 642 881 l 642 836 l 642 825 l 642 762 l 642 747 l 642 700 l 642 632 l 642 621 l 642 606 l 642 532 l 642 521 l 642 507 l 642 463 l 642 451 l 642 388 l 642 314 l 642 302 l 642 288 l 642 277 l 642 258 l 642 248 l 642 195 l 642 165 l 642 136 l 642 21 l 642 10 l 642 -1 l 527 -1 l 527 292 l 478 292 l 467 292 l 467 351 l 419 351 l 408 351 l 408 410 l 382 410 l 353 410 l 290 410 l 275 410 l 234 410 l 171 410 l 171 343 l 171 328 l 171 317 l 171 302 l 171 292 l 174 292 l 171 292 l 178 292 l 174 292 l 178 292 l 230 292 l 230 248 l 230 236 l 230 173 l 230 158 l 230 143 l 230 128 l 230 62 l 230 47 l 230 -1 l 204 -1 l 174 -1 l 111 -1 l 97 -1 l 82 -1 l 67 -1 l 52 -1 l 52 54 l 26 54 l -3 54 "},"i":{"ha":412,"x_min":-3,"x_max":286,"o":"m 112 826 l 112 882 l 178 882 l 193 882 l 204 882 l 219 882 l 235 882 l 271 882 l 286 882 l 286 837 l 286 826 l 286 763 l 286 748 l 286 700 l 286 633 l 286 622 l 286 608 l 286 592 l 286 548 l 286 536 l 286 473 l 286 459 l 286 411 l 286 392 l 286 377 l 286 351 q 231 310 218 366 l 231 266 l 231 255 l 231 192 l 231 177 l 231 129 l 231 110 l 231 69 l 231 54 l 182 54 l 171 54 l 171 9 l 171 -1 l 127 -1 l 115 -1 l 52 -1 l 52 589 q -3 592 26 585 l -3 826 l 112 826 "},"j":{"ha":772,"x_min":-3,"x_max":644,"o":"m 469 825 l 469 880 l 536 880 l 551 880 l 562 880 l 576 880 l 591 880 l 629 880 l 644 880 l 644 836 l 644 825 l 644 762 l 644 746 l 644 731 l 644 716 l 644 702 l 644 661 l 644 594 l 644 579 l 644 557 l 644 538 l 644 516 l 644 490 l 644 468 l 644 441 l 644 326 l 644 315 l 644 304 l 644 230 l 644 200 l 644 170 l 644 140 l 644 111 l 617 111 l 588 111 l 588 62 l 588 51 l 540 51 l 528 51 l 528 7 l 528 -5 l 454 -5 l 443 -5 l 428 -5 l 417 -5 l 399 -5 l 387 -5 l 335 -5 l 220 -5 l 171 -5 l 171 51 l 127 51 l 115 51 l 52 51 l 52 170 l 26 170 l -3 170 l -3 349 l 41 349 l 52 349 l 52 408 l 97 408 l 109 408 l 171 408 l 186 408 l 201 408 l 216 408 l 231 408 l 231 363 l 231 352 l 231 289 l 231 274 l 231 233 l 231 170 l 279 170 l 290 170 l 290 121 l 290 111 l 357 111 l 372 111 l 383 111 q 409 170 422 106 l 458 170 l 469 170 l 469 587 l 420 587 l 409 587 l 409 706 l 361 706 l 350 706 l 350 825 l 417 825 l 432 825 l 443 825 l 458 825 l 469 825 "},"k":{"ha":745,"x_min":0,"x_max":645,"o":"m 0 54 l 0 881 l 115 881 l 115 837 l 115 825 l 115 762 l 115 747 l 115 699 l 115 633 l 115 621 l 115 606 l 115 591 l 115 529 l 163 529 l 174 529 l 174 588 l 222 588 l 234 588 l 234 647 l 281 647 l 293 647 l 293 766 l 341 766 l 352 766 l 352 881 l 397 881 l 408 881 l 471 881 l 471 837 l 471 825 l 515 825 l 527 825 l 589 825 l 589 781 l 589 770 l 589 707 l 541 707 l 530 707 l 530 659 l 530 647 l 481 647 l 471 647 l 471 600 l 471 588 l 422 588 l 411 588 l 411 544 l 411 532 l 411 470 l 411 455 l 411 440 l 411 425 l 411 410 l 460 410 l 471 410 l 471 362 l 471 351 l 519 351 l 530 351 l 530 303 l 530 292 l 578 292 l 589 292 l 589 243 l 589 233 l 633 233 l 645 233 l 645 188 l 645 177 l 645 113 l 645 98 l 645 84 l 645 69 l 645 54 l 619 54 l 589 54 l 589 10 l 589 -1 l 545 -1 l 534 -1 l 471 -1 l 471 113 l 422 113 l 411 113 l 411 233 l 363 233 l 352 233 l 352 351 l 304 351 l 293 351 l 293 470 l 244 470 l 234 470 l 234 421 l 234 410 l 185 410 l 174 410 l 174 362 l 174 288 l 174 277 l 174 262 l 174 251 l 174 233 l 222 233 l 234 233 l 234 184 l 234 173 l 234 106 l 234 92 l 234 80 l 234 66 l 234 54 l 234 39 l 234 -1 l 159 -1 l 85 -1 l 56 -1 l 56 54 l 30 54 l 0 54 "},"l":{"ha":771,"x_min":0,"x_max":648,"o":"m 56 766 l 56 881 l 100 881 l 112 881 l 175 881 l 175 836 l 175 825 l 175 762 l 175 747 l 175 699 l 175 631 l 175 621 l 175 606 l 175 591 l 175 546 l 175 534 l 175 471 l 175 456 l 175 408 l 175 390 l 175 374 l 175 349 l 223 349 l 235 349 l 235 304 l 235 293 l 235 230 l 235 215 l 235 199 l 235 185 l 235 170 l 279 170 l 290 170 l 353 170 l 369 170 l 384 170 l 398 170 q 413 230 423 175 l 458 230 l 469 230 l 532 230 l 547 230 l 595 230 l 614 230 l 629 230 l 648 230 l 648 185 l 648 174 l 648 111 l 622 111 l 592 111 l 592 62 l 592 51 l 525 51 l 510 51 l 498 51 l 484 51 l 473 51 l 473 7 l 473 -5 l 447 -5 l 416 -5 l 353 -5 l 338 -5 l 290 -5 l 223 -5 l 212 -5 l 197 -5 l 123 -5 l 112 -5 l 97 -5 l 78 -5 l 56 -5 l 56 51 l 30 51 l 0 51 l 0 766 l 45 766 l 56 766 "},"m":{"ha":1143,"x_min":0,"x_max":1004,"o":"m 0 -5 l 0 881 l 115 881 l 115 836 l 115 825 l 160 825 l 171 825 l 234 825 l 234 777 l 234 766 l 282 766 l 294 766 l 294 718 l 294 706 l 338 706 l 349 706 l 412 706 l 412 658 l 412 647 l 460 647 l 472 647 l 472 598 l 472 587 l 521 587 l 532 587 l 532 647 l 580 647 l 591 647 l 591 766 l 640 766 l 650 766 l 650 825 l 699 825 l 710 825 l 710 881 l 755 881 l 766 881 l 829 881 l 844 881 l 885 881 l 948 881 l 948 836 l 948 825 l 993 825 l 1004 825 l 1004 781 l 1004 769 l 1004 706 l 1004 692 l 1004 643 l 1004 625 l 1004 583 l 1004 538 l 1004 527 l 1004 465 l 1004 449 l 1004 401 l 1004 356 l 1004 345 l 1004 282 l 1004 207 l 1004 196 l 1004 181 l 1004 170 l 1004 152 l 1004 140 l 1004 88 l 1004 21 l 1004 6 l 1004 -5 l 959 -5 l 948 -5 l 885 -5 l 870 -5 l 821 -5 l 803 -5 l 788 -5 l 770 -5 l 770 51 l 722 51 l 710 51 l 710 170 l 758 170 l 770 170 l 770 290 l 818 290 l 829 290 l 829 468 l 877 468 l 888 468 l 888 647 l 821 647 l 806 647 l 795 647 l 781 647 l 770 647 l 770 598 l 770 587 l 722 587 l 710 587 l 710 538 l 710 527 l 662 527 l 650 527 l 650 483 l 650 471 l 650 408 l 650 393 l 650 353 l 650 290 l 602 290 l 591 290 l 591 245 l 591 233 l 591 170 l 543 170 l 532 170 l 532 122 l 532 111 l 483 111 l 472 111 l 472 290 l 424 290 l 412 290 l 412 408 l 364 408 l 353 408 l 353 527 l 304 527 l 294 527 l 294 587 l 245 587 l 234 587 l 234 647 l 186 647 l 175 647 l 175 706 l 127 706 l 115 706 l 115 639 l 115 625 l 115 613 l 115 598 l 115 583 l 115 546 q 175 527 115 517 l 175 483 l 175 471 l 175 408 l 175 393 l 175 353 l 175 290 l 223 290 l 234 290 l 234 222 l 234 207 l 234 196 l 234 181 l 234 170 l 282 170 l 294 170 l 294 125 l 294 114 l 294 51 l 245 51 l 234 51 l 234 6 l 234 -5 l 208 -5 l 178 -5 l 115 -5 l 100 -5 l 52 -5 l 33 -5 l 19 -5 l 0 -5 "},"n":{"ha":837,"x_min":-3,"x_max":701,"o":"m -3 54 l -3 881 l 41 881 l 52 881 l 115 881 l 130 881 l 178 881 l 197 881 l 212 881 l 230 881 l 230 836 l 230 825 l 278 825 l 290 825 l 290 777 l 290 766 l 338 766 l 349 766 l 349 718 l 349 707 l 397 707 l 408 707 l 408 640 l 408 625 l 408 614 l 408 600 l 408 588 l 456 588 l 467 588 l 467 522 l 467 507 l 467 496 l 467 480 l 467 469 l 515 469 l 526 469 l 526 766 q 467 773 497 760 l 467 881 l 512 881 l 523 881 l 586 881 l 601 881 l 649 881 l 667 881 l 682 881 l 701 881 l 701 836 l 701 825 l 701 762 l 701 747 l 701 699 l 701 681 l 701 640 l 701 595 l 701 585 l 701 522 l 701 507 l 701 458 l 701 414 l 701 403 l 701 340 l 701 266 l 701 254 l 701 240 l 701 229 l 701 210 l 701 199 l 701 147 l 701 81 l 701 65 l 701 54 l 675 54 l 645 54 l 645 9 l 645 -1 l 601 -1 l 589 -1 l 526 -1 l 526 232 l 478 232 l 467 232 l 467 351 l 419 351 l 408 351 l 408 410 l 359 410 l 349 410 l 349 528 l 304 528 l 293 528 l 230 528 l 230 588 l 185 588 l 182 588 l 185 588 q 171 581 174 587 l 171 536 l 171 525 l 171 462 l 171 448 l 171 399 l 171 380 l 171 366 l 171 351 l 219 351 l 230 351 l 230 277 l 230 266 l 230 251 l 230 240 l 230 221 l 230 210 l 230 199 l 230 125 l 230 113 l 278 113 l 290 113 l 290 62 l 290 -1 l 174 -1 l 163 -1 l 96 -1 l 85 -1 l 52 -1 l 52 54 l 26 54 l -3 54 "},"o":{"ha":779,"x_min":0,"x_max":646,"o":"m 115 827 l 115 883 l 189 883 l 201 883 l 216 883 l 227 883 l 245 883 l 256 883 l 308 883 l 423 883 l 471 883 l 471 838 l 471 827 l 520 827 l 531 827 l 531 779 l 531 768 l 580 768 l 591 768 l 591 701 l 591 686 l 591 675 l 591 660 l 591 648 q 646 645 616 652 l 646 601 l 646 589 l 646 526 l 646 511 l 646 496 l 646 481 l 646 467 l 646 426 l 646 359 l 646 344 l 646 322 l 646 303 l 646 281 l 646 255 l 646 233 l 646 184 l 646 174 l 621 174 l 591 174 l 591 129 l 591 117 l 591 54 l 543 54 l 531 54 l 531 10 l 531 -1 l 457 -1 l 446 -1 l 431 -1 l 420 -1 l 401 -1 l 390 -1 l 338 -1 l 223 -1 l 175 -1 l 175 54 l 126 54 l 115 54 l 115 114 l 66 114 l 56 114 l 56 233 l 30 233 l 0 233 l 0 708 l 45 708 l 56 708 l 56 827 l 104 827 l 115 827 m 249 768 l 234 768 l 234 720 l 234 708 l 186 708 l 175 708 l 175 664 l 175 653 l 175 589 l 175 575 l 175 559 l 175 545 l 175 530 l 175 489 l 175 422 l 175 407 l 175 385 l 175 366 l 175 344 l 175 281 l 175 259 l 175 233 l 223 233 l 234 233 l 234 165 l 234 151 l 234 140 l 234 125 l 234 114 l 279 114 l 290 114 l 353 114 l 368 114 l 382 114 l 397 114 l 412 114 l 412 233 l 460 233 l 471 233 l 471 648 l 423 648 l 412 648 l 412 768 l 386 768 l 357 768 l 294 768 l 279 768 l 264 768 l 249 768 "},"p":{"ha":736,"x_min":0,"x_max":602,"o":"m 163 829 l 163 881 l 204 881 l 214 881 l 273 881 l 287 881 l 325 881 l 384 881 l 384 840 l 384 829 l 425 829 l 435 829 l 494 829 l 494 784 l 494 774 l 539 774 l 550 774 l 550 711 l 550 698 l 550 687 l 550 673 l 550 663 l 591 663 l 602 663 l 602 621 l 602 612 l 602 552 l 602 538 l 602 494 l 602 477 l 602 463 l 602 404 l 602 387 l 578 387 l 550 387 l 550 341 l 550 332 l 481 332 l 470 332 l 456 332 l 446 332 l 429 332 l 418 332 l 370 332 l 263 332 l 218 332 l 218 387 l 173 387 l 163 387 l 163 324 l 163 311 l 163 300 l 163 286 l 163 276 l 207 276 l 218 276 l 218 235 l 218 224 l 218 165 l 218 151 l 218 138 l 218 123 l 218 110 q 273 96 269 118 l 273 26 l 273 17 l 273 3 l 249 3 l 221 3 l 163 3 l 149 3 l 111 3 l 52 3 l 52 54 l 28 54 l 0 54 l 0 552 q 52 591 64 539 l 52 829 l 114 829 l 128 829 l 138 829 l 152 829 l 163 829 m 221 718 l 163 718 l 163 677 l 163 667 l 163 608 l 163 594 l 163 555 l 163 497 l 163 452 l 163 442 l 204 442 l 214 442 l 273 442 l 287 442 l 325 442 l 384 442 l 384 497 q 439 525 446 485 l 439 663 l 395 663 l 384 663 l 384 718 l 359 718 l 332 718 l 273 718 l 259 718 l 221 718 "},"q":{"ha":854,"x_min":3,"x_max":708,"o":"m 118 825 l 118 881 l 193 881 l 203 881 l 218 881 l 230 881 l 248 881 l 259 881 l 311 881 l 427 881 l 475 881 l 475 836 l 475 825 l 523 825 l 534 825 l 534 777 l 534 766 l 582 766 l 593 766 l 593 699 l 593 684 l 593 673 l 593 659 l 593 648 l 642 648 l 652 648 l 652 573 l 652 562 l 652 547 l 652 536 l 652 517 l 652 473 l 652 462 l 652 399 l 652 384 l 652 369 l 652 355 l 652 288 l 652 273 l 652 254 l 652 232 l 604 232 l 593 232 l 593 184 l 593 173 l 708 173 l 708 106 l 708 92 l 708 81 l 708 65 l 708 50 l 708 14 l 708 -1 l 593 -1 q 582 54 603 41 l 534 54 l 534 9 l 534 -1 l 460 -1 l 449 -1 l 433 -1 l 422 -1 l 404 -1 l 393 -1 l 341 -1 l 226 -1 l 178 -1 l 178 54 l 130 54 l 118 54 l 118 113 l 70 113 l 59 113 l 59 232 q 3 236 33 229 l 3 707 l 48 707 l 59 707 l 59 825 l 108 825 l 118 825 m 307 766 l 296 766 l 296 718 l 296 707 l 248 707 l 237 707 l 237 662 l 237 651 l 237 588 l 189 588 l 178 588 l 178 543 l 178 533 l 178 469 l 178 454 l 178 406 l 178 340 l 178 329 l 178 314 l 178 240 l 178 229 l 178 214 l 178 195 l 178 173 l 226 173 l 237 173 l 237 125 l 237 113 l 285 113 l 296 113 l 296 65 l 296 54 l 363 54 l 378 54 l 389 54 l 404 54 l 415 54 l 415 113 l 367 113 l 355 113 l 355 232 l 307 232 l 296 232 l 296 351 l 345 351 l 355 351 l 355 302 l 355 292 l 404 292 l 415 292 q 422 232 408 262 l 475 232 l 475 648 l 427 648 l 415 648 l 415 707 l 367 707 l 355 707 l 355 766 l 307 766 "},"r":{"ha":881,"x_min":0,"x_max":648,"o":"m 175 825 l 175 881 l 220 881 l 231 881 l 294 881 l 309 881 l 350 881 l 413 881 l 413 836 l 413 825 l 458 825 l 469 825 l 532 825 l 532 777 l 532 766 l 581 766 l 592 766 l 592 699 l 592 684 l 592 673 l 592 658 l 592 647 l 637 647 l 648 647 l 648 602 l 648 591 l 648 527 l 648 513 l 648 471 l 648 408 l 622 408 l 592 408 l 592 360 l 592 349 l 543 349 l 532 349 l 532 282 l 532 267 l 532 256 l 532 241 l 532 229 l 581 229 l 592 229 l 592 181 l 592 170 l 637 170 l 648 170 l 648 125 l 648 114 l 648 51 l 622 51 l 592 51 l 592 6 l 592 -5 l 547 -5 l 536 -5 l 473 -5 l 473 51 l 425 51 l 413 51 l 413 170 l 365 170 l 354 170 l 354 290 l 305 290 l 294 290 l 294 349 l 227 349 l 212 349 l 201 349 l 186 349 l 175 349 l 175 300 l 175 290 l 223 290 l 235 290 l 235 245 l 235 233 l 235 170 l 235 155 l 235 140 l 235 125 l 235 111 l 283 111 l 294 111 l 294 -5 l 268 -5 l 239 -5 l 175 -5 l 160 -5 l 145 -5 l 130 -5 l 63 -5 l 48 -5 l 0 -5 l 0 825 l 45 825 l 56 825 l 119 825 l 134 825 l 175 825 m 134 706 l 115 706 l 115 661 l 115 650 l 115 587 l 115 572 l 115 557 l 115 543 l 115 527 l 163 527 l 175 527 l 175 479 l 175 468 l 220 468 l 231 468 l 294 468 l 309 468 l 350 468 l 413 468 l 413 527 q 473 538 460 518 l 473 647 l 425 647 l 413 647 l 413 706 l 387 706 l 357 706 l 294 706 l 279 706 l 231 706 l 212 706 l 197 706 l 134 706 "},"s":{"ha":721,"x_min":-3,"x_max":583,"o":"m 230 825 l 230 881 l 275 881 l 286 881 l 349 881 l 363 881 l 412 881 l 431 881 l 446 881 l 509 881 l 527 881 l 527 836 l 527 825 l 572 825 l 583 825 l 583 781 l 583 770 l 583 707 l 583 692 l 583 677 l 583 662 l 583 648 l 468 648 l 468 707 l 441 707 l 412 707 l 349 707 l 349 766 l 300 766 l 290 766 l 290 718 l 290 707 l 241 707 l 230 707 l 230 659 l 230 648 l 279 648 l 290 648 l 290 600 l 290 588 l 334 588 l 345 588 l 408 588 l 408 540 l 408 528 l 456 528 l 468 528 l 468 480 l 468 469 l 516 469 l 527 469 l 527 403 l 527 388 l 527 377 l 527 362 l 527 351 l 572 351 l 583 351 l 583 307 l 583 295 l 583 232 l 583 218 l 583 177 l 583 113 l 557 113 l 527 113 l 527 65 l 527 54 l 460 54 l 446 54 l 434 54 l 420 54 l 408 54 l 408 9 l 408 -1 l 382 -1 l 353 -1 l 290 -1 l 275 -1 l 227 -1 l 208 -1 l 193 -1 l 130 -1 l 111 -1 l 111 54 l 63 54 l 52 54 l 52 113 l 26 113 l -3 113 l -3 232 l 111 232 l 111 184 l 111 173 l 159 173 l 171 173 l 171 125 l 171 113 l 223 113 l 290 113 l 290 173 l 338 173 l 349 173 l 349 351 l 300 351 l 290 351 l 290 410 l 241 410 l 230 410 l 230 469 l 182 469 l 171 469 l 171 528 l 123 528 l 111 528 l 111 588 l 63 588 l 52 588 l 52 766 l 101 766 l 111 766 l 111 825 l 178 825 l 193 825 l 204 825 l 219 825 l 230 825 "},"t":{"ha":788,"x_min":0,"x_max":647,"o":"m 0 706 l 0 881 l 45 881 l 56 881 l 119 881 l 134 881 l 149 881 l 163 881 l 178 881 l 219 881 l 286 881 l 301 881 l 323 881 l 342 881 l 365 881 l 391 881 l 413 881 l 461 881 l 472 881 q 476 825 469 854 l 551 825 l 562 825 l 576 825 l 587 825 l 606 825 l 647 825 l 647 781 l 647 769 l 647 706 l 621 706 l 591 706 l 528 706 l 513 706 l 472 706 l 472 658 l 472 647 l 424 647 l 413 647 l 413 609 l 413 564 l 413 554 l 413 490 l 413 475 l 413 427 l 413 408 l 461 408 l 472 408 l 472 334 l 472 322 l 472 308 l 472 296 l 472 278 l 472 267 l 472 215 l 472 100 l 472 51 l 424 51 l 413 51 l 413 6 l 413 -5 l 387 -5 l 357 -5 l 294 -5 l 279 -5 l 264 -5 l 250 -5 l 234 -5 l 234 706 l 208 706 l 178 706 l 115 706 l 100 706 l 52 706 l 33 706 l 19 706 l 0 706 "},"u":{"ha":774,"x_min":-3,"x_max":640,"o":"m -3 113 l -3 879 l 111 879 l 111 834 l 111 823 l 111 760 l 111 746 l 111 731 l 111 716 l 111 701 l 111 661 l 111 594 l 111 579 l 111 557 l 111 538 l 111 516 l 111 490 l 111 468 l 111 420 l 111 410 l 159 410 l 170 410 l 170 365 l 170 354 l 170 291 l 170 276 l 170 261 l 170 246 l 170 232 l 218 232 l 229 232 l 229 184 l 229 172 l 274 172 l 286 172 l 348 172 l 363 172 l 377 172 l 393 172 l 408 172 l 408 232 l 455 232 l 467 232 l 467 528 q 408 546 407 518 l 408 823 l 473 823 l 489 823 l 499 823 l 515 823 l 526 823 l 526 879 l 640 879 l 640 834 l 640 823 l 640 760 l 640 746 l 640 698 l 640 680 l 640 664 l 640 602 l 640 557 l 640 546 l 640 484 l 640 468 l 640 420 l 640 394 l 640 320 l 640 309 l 640 294 l 640 283 l 640 265 l 640 224 l 640 172 l 614 172 l 585 172 l 585 128 l 585 117 l 585 54 l 536 54 l 526 54 l 526 9 l 526 -1 l 481 -1 l 470 -1 l 408 -1 l 393 -1 l 377 -1 l 363 -1 l 348 -1 l 307 -1 l 241 -1 l 226 -1 l 203 -1 l 186 -1 l 163 -1 l 100 -1 l 78 -1 l 52 -1 l 52 113 l 26 113 l -3 113 "},"v":{"ha":907,"x_min":0,"x_max":767,"o":"m 56 825 l 56 881 l 100 881 l 112 881 l 175 881 l 190 881 l 205 881 l 220 881 l 235 881 l 235 806 l 235 795 l 235 781 l 235 769 l 235 751 l 235 740 l 235 724 l 235 713 q 294 706 260 704 l 294 631 l 294 621 l 294 606 l 294 594 l 294 576 l 294 565 l 294 512 l 294 397 l 294 349 l 342 349 l 354 349 l 354 408 l 402 408 l 413 408 l 413 528 l 462 528 l 473 528 l 473 646 l 522 646 l 532 646 l 532 706 l 581 706 l 592 706 l 592 825 l 641 825 l 652 825 l 652 881 l 767 881 l 767 814 l 767 799 l 767 788 l 767 773 l 767 758 l 767 721 l 767 706 l 741 706 l 711 706 l 711 661 l 711 650 l 711 587 l 663 587 l 652 587 l 652 543 l 652 531 l 652 468 l 604 468 l 592 468 l 592 423 l 592 412 l 592 349 l 544 349 l 532 349 l 532 304 l 532 293 l 532 230 l 484 230 l 473 230 l 473 185 l 473 174 l 473 111 l 425 111 l 413 111 l 413 66 l 413 55 l 413 7 l 413 -5 l 387 -5 l 357 -5 l 294 -5 l 279 -5 l 264 -5 l 250 -5 l 235 -5 l 235 51 l 186 51 l 175 51 l 175 349 q 115 368 115 339 l 115 646 l 66 646 l 56 646 l 56 706 l 30 706 l 0 706 l 0 825 l 45 825 l 56 825 "},"w":{"ha":1257,"x_min":0,"x_max":1124,"o":"m 56 825 l 56 881 l 100 881 l 111 881 l 175 881 l 189 881 l 205 881 l 220 881 l 234 881 l 234 836 l 234 825 l 234 762 l 234 747 l 234 706 l 283 706 l 294 706 l 294 661 l 294 650 l 294 587 l 294 572 l 294 531 l 294 468 l 342 468 l 353 468 l 353 420 l 353 408 l 402 408 l 413 408 l 413 528 l 461 528 l 473 528 l 473 706 l 521 706 l 532 706 l 532 766 l 577 766 l 588 766 l 651 766 l 666 766 l 681 766 l 696 766 l 711 766 l 711 721 l 711 709 l 711 647 l 711 631 l 711 591 l 711 528 l 760 528 l 770 528 l 770 460 l 770 446 l 770 434 l 770 420 l 770 408 l 819 408 l 829 408 l 829 706 l 878 706 l 890 706 l 890 881 l 935 881 l 945 881 l 1008 881 l 1023 881 l 1038 881 l 1053 881 l 1068 881 l 1068 836 l 1068 825 l 1113 825 l 1124 825 l 1124 781 l 1124 770 l 1124 706 l 1098 706 l 1068 706 l 1068 661 l 1068 650 l 1068 587 l 1068 572 l 1068 557 l 1068 543 l 1068 528 l 1019 528 l 1008 528 l 1008 483 l 1008 472 l 1008 408 l 1008 393 l 1008 353 l 1008 290 l 960 290 l 949 290 l 949 174 l 949 163 l 949 96 l 949 85 q 890 51 960 39 l 890 6 l 890 -5 l 841 -5 l 829 -5 l 782 -5 l 770 -5 l 770 170 l 722 170 l 711 170 l 711 290 l 663 290 l 651 290 l 651 408 l 603 408 l 591 408 l 591 359 l 591 349 l 543 349 l 532 349 l 532 304 l 532 293 l 532 229 l 484 229 l 473 229 l 473 185 l 473 174 l 473 111 l 425 111 l 413 111 l 413 -5 l 387 -5 l 357 -5 l 294 -5 l 279 -5 l 264 -5 l 250 -5 l 234 -5 l 234 51 l 186 51 l 175 51 l 175 349 l 127 349 l 115 349 l 115 587 l 67 587 l 56 587 l 56 706 l 30 706 l 0 706 l 0 825 l 45 825 l 56 825 "},"x":{"ha":772,"x_min":-3,"x_max":644,"o":"m -3 646 l -3 881 l 112 881 l 112 836 l 112 825 l 160 825 l 172 825 l 172 777 l 172 766 l 220 766 l 231 766 l 231 718 l 231 706 l 279 706 l 291 706 l 291 639 l 291 624 l 291 613 l 291 598 l 291 587 l 339 587 l 350 587 l 350 706 l 399 706 l 410 706 l 410 825 l 458 825 l 469 825 l 469 881 l 536 881 l 551 881 l 562 881 l 577 881 l 592 881 l 629 881 l 644 881 l 644 814 l 644 799 l 644 788 l 644 773 l 644 758 l 644 721 l 644 706 l 618 706 l 589 706 l 589 661 l 589 650 l 589 587 l 540 587 l 529 587 l 529 542 l 529 531 l 529 468 l 481 468 l 469 468 l 469 420 l 469 408 l 517 408 l 529 408 l 529 360 l 529 349 l 577 349 l 589 349 l 589 282 l 589 267 l 589 256 l 589 241 l 589 230 l 633 230 l 644 230 l 644 185 l 644 174 l 644 111 l 644 96 l 644 47 l 644 28 l 644 14 l 644 -5 l 529 -5 l 529 51 l 481 51 l 469 51 l 469 170 l 421 170 l 410 170 l 410 230 l 361 230 l 350 230 l 350 290 l 302 290 l 291 290 l 291 244 l 291 233 l 291 170 l 242 170 l 231 170 l 231 122 l 231 111 l 183 111 l 172 111 l 172 62 l 172 51 l 123 51 l 112 51 l 112 6 l 112 -5 l -3 -5 l -3 170 l 41 170 l 52 170 l 52 230 l 101 230 l 112 230 l 112 349 l 160 349 l 172 349 l 172 408 l 220 408 l 231 408 l 231 468 l 183 468 l 172 468 l 172 528 l 123 528 l 112 528 l 112 587 l 64 587 l 52 587 l 52 646 l 26 646 l -3 646 "},"y":{"ha":835,"x_min":0,"x_max":707,"o":"m 0 706 l 0 881 l 67 881 l 82 881 l 93 881 l 108 881 l 123 881 l 160 881 l 175 881 l 175 766 l 223 766 l 235 766 l 235 699 l 235 684 l 235 672 l 235 658 l 235 646 l 279 646 l 290 646 l 354 646 l 368 646 l 384 646 l 399 646 l 413 646 l 413 706 l 462 706 l 473 706 l 473 881 l 517 881 l 529 881 l 592 881 l 606 881 l 656 881 l 673 881 l 688 881 l 707 881 l 707 814 l 707 799 l 707 788 l 707 773 l 707 758 l 707 721 l 707 706 l 682 706 l 651 706 l 651 661 l 651 650 l 651 587 l 603 587 l 592 587 l 592 538 l 592 528 l 543 528 l 532 528 l 532 479 l 532 468 l 465 468 l 450 468 l 439 468 l 425 468 q 413 465 419 469 l 413 397 l 413 382 l 413 371 l 413 357 l 413 345 l 413 330 l 413 315 l 413 241 l 413 230 l 462 230 l 473 230 l 473 185 l 473 174 l 473 111 l 473 96 l 473 55 l 473 7 l 473 -5 l 447 -5 l 417 -5 l 354 -5 l 339 -5 l 298 -5 l 235 -5 l 235 468 l 186 468 l 175 468 l 175 528 l 127 528 l 115 528 l 115 587 l 67 587 l 56 587 l 56 706 l 30 706 l 0 706 "},"z":{"ha":784,"x_min":0,"x_max":645,"o":"m 0 588 l 0 881 l 45 881 l 56 881 l 119 881 l 134 881 l 149 881 l 163 881 l 178 881 l 218 881 l 286 881 l 300 881 l 323 881 l 341 881 l 363 881 l 389 881 l 412 881 l 460 881 l 471 881 l 471 836 l 471 825 l 515 825 l 527 825 l 589 825 l 589 777 l 589 766 l 634 766 l 645 766 l 645 718 l 645 707 l 619 707 l 589 707 l 589 659 l 589 647 l 541 647 l 530 647 l 530 600 l 530 588 l 482 588 l 471 588 l 471 540 l 471 529 l 422 529 l 412 529 l 412 485 l 412 473 l 412 410 l 363 410 l 352 410 l 352 366 l 352 355 l 352 292 l 304 292 l 293 292 l 293 225 l 293 210 l 293 199 l 293 184 l 293 173 l 359 173 l 374 173 l 385 173 l 401 173 l 412 173 l 412 233 l 456 233 l 467 233 l 530 233 l 545 233 l 593 233 l 612 233 l 627 233 l 642 233 q 645 147 648 197 l 645 106 l 645 39 l 645 28 l 645 -1 l 530 -1 q 527 54 534 25 l 500 54 l 471 54 l 408 54 l 393 54 l 378 54 l 363 54 l 315 54 q 293 -1 281 56 l 267 -1 l 237 -1 l 174 -1 l 159 -1 l 144 -1 l 130 -1 l 63 -1 l 48 -1 l 0 -1 l 0 173 l 45 173 l 56 173 l 56 292 l 104 292 l 115 292 l 115 351 l 163 351 l 174 351 l 174 469 l 222 469 l 233 469 l 233 529 l 281 529 l 293 529 l 293 588 l 341 588 l 352 588 l 352 647 l 401 647 l 412 647 l 412 707 l 385 707 l 356 707 l 293 707 l 278 707 l 237 707 l 174 707 l 174 659 l 174 647 l 107 647 l 92 647 l 81 647 l 66 647 l 56 647 l 56 600 l 56 588 l 29 588 l 0 588 "},"{":{"ha":464,"x_min":39,"x_max":431,"o":"m 39 415 l 39 304 q 124 276 91 303 q 168 202 157 249 q 179 33 178 155 q 188 -142 180 -89 q 225 -231 197 -196 q 297 -281 254 -266 q 393 -292 327 -292 l 431 -292 l 431 -186 l 410 -186 q 324 -168 346 -186 q 296 -103 302 -149 q 294 54 294 -78 q 260 264 294 200 q 152 359 227 328 q 244 429 215 390 q 286 541 274 469 q 294 766 294 588 q 317 879 294 854 q 410 905 340 905 l 431 905 l 431 1011 l 393 1011 q 309 1004 335 1011 q 247 973 271 994 q 206 918 222 952 q 183 826 189 883 q 179 677 180 790 q 168 517 178 564 q 124 443 157 470 q 39 415 91 416 "},"|":{"ha":361,"x_min":127,"x_max":234,"o":"m 127 -292 l 234 -292 l 234 1011 l 127 1011 l 127 -292 "},"}":{"ha":464,"x_min":32,"x_max":425,"o":"m 425 415 q 339 444 372 416 q 296 517 307 471 q 284 686 285 564 q 275 861 283 808 q 238 950 267 915 q 166 1000 210 985 q 70 1011 136 1011 l 32 1011 l 32 905 l 53 905 q 139 887 117 905 q 166 823 161 869 q 170 665 170 798 q 201 458 170 519 q 311 359 233 397 q 219 289 252 334 q 176 169 186 244 q 170 -46 170 123 q 146 -160 170 -135 q 53 -186 123 -186 l 32 -186 l 32 -292 l 70 -292 q 154 -285 128 -292 q 216 -253 192 -274 q 257 -198 241 -233 q 280 -106 274 -164 q 284 43 283 -71 q 296 202 285 156 q 339 276 307 249 q 425 304 372 303 l 425 415 "},"~":{"ha":811,"x_min":59,"x_max":753,"o":"m 59 378 q 154 451 116 433 q 236 470 193 470 q 370 434 290 470 q 487 389 450 398 q 565 379 524 379 q 665 397 621 379 q 753 456 709 416 l 753 600 q 669 534 716 560 q 578 507 622 507 q 531 513 554 507 q 460 539 507 519 q 333 586 378 574 q 248 598 288 598 q 59 517 131 598 l 59 378 "},"Ä":{"ha":413,"x_min":0,"x_max":0,"o":""},"Å":{"ha":413,"x_min":0,"x_max":0,"o":""},"Ç":{"ha":494,"x_min":0,"x_max":0,"o":""},"É":{"ha":439,"x_min":0,"x_max":0,"o":""},"Ñ":{"ha":415,"x_min":0,"x_max":0,"o":""},"Ö":{"ha":472,"x_min":0,"x_max":0,"o":""},"Ü":{"ha":448,"x_min":0,"x_max":0,"o":""},"á":{"ha":250,"x_min":0,"x_max":0,"o":""},"à":{"ha":250,"x_min":0,"x_max":0,"o":""},"â":{"ha":250,"x_min":0,"x_max":0,"o":""},"ä":{"ha":250,"x_min":0,"x_max":0,"o":""},"ã":{"ha":250,"x_min":0,"x_max":0,"o":""},"å":{"ha":250,"x_min":0,"x_max":0,"o":""},"ç":{"ha":346,"x_min":0,"x_max":0,"o":""},"é":{"ha":330,"x_min":0,"x_max":0,"o":""},"è":{"ha":330,"x_min":0,"x_max":0,"o":""},"ê":{"ha":330,"x_min":0,"x_max":0,"o":""},"ë":{"ha":330,"x_min":0,"x_max":0,"o":""},"í":{"ha":159,"x_min":0,"x_max":0,"o":""},"ì":{"ha":159,"x_min":0,"x_max":0,"o":""},"î":{"ha":159,"x_min":0,"x_max":0,"o":""},"ï":{"ha":159,"x_min":0,"x_max":0,"o":""},"ñ":{"ha":260,"x_min":0,"x_max":0,"o":""},"ó":{"ha":248,"x_min":0,"x_max":0,"o":""},"ò":{"ha":248,"x_min":0,"x_max":0,"o":""},"ô":{"ha":248,"x_min":0,"x_max":0,"o":""},"ö":{"ha":248,"x_min":0,"x_max":0,"o":""},"õ":{"ha":248,"x_min":0,"x_max":0,"o":""},"ú":{"ha":232,"x_min":0,"x_max":0,"o":""},"ù":{"ha":232,"x_min":0,"x_max":0,"o":""},"û":{"ha":232,"x_min":0,"x_max":0,"o":""},"ü":{"ha":232,"x_min":0,"x_max":0,"o":""},"†":{"ha":306,"x_min":0,"x_max":0,"o":""},"°":{"ha":193,"x_min":0,"x_max":0,"o":""},"¢":{"ha":431,"x_min":0,"x_max":0,"o":""},"£":{"ha":431,"x_min":0,"x_max":0,"o":""},"§":{"ha":285,"x_min":0,"x_max":0,"o":""},"•":{"ha":262,"x_min":0,"x_max":0,"o":""},"¶":{"ha":305,"x_min":0,"x_max":0,"o":""},"ß":{"ha":338,"x_min":0,"x_max":0,"o":""},"®":{"ha":507,"x_min":0,"x_max":0,"o":""},"©":{"ha":484,"x_min":0,"x_max":0,"o":""},"™":{"ha":462,"x_min":0,"x_max":0,"o":""},"´":{"ha":313,"x_min":0,"x_max":0,"o":""},"¨":{"ha":252,"x_min":0,"x_max":0,"o":""},"Æ":{"ha":555,"x_min":0,"x_max":0,"o":""},"Ø":{"ha":472,"x_min":0,"x_max":0,"o":""},"±":{"ha":431,"x_min":0,"x_max":0,"o":""},"¥":{"ha":431,"x_min":0,"x_max":0,"o":""},"µ":{"ha":285,"x_min":0,"x_max":0,"o":""},"μ":{"ha":285,"x_min":0,"x_max":0,"o":""},"ª":{"ha":273,"x_min":0,"x_max":0,"o":""},"º":{"ha":273,"x_min":0,"x_max":0,"o":""},"æ":{"ha":507,"x_min":0,"x_max":0,"o":""},"ø":{"ha":248,"x_min":0,"x_max":0,"o":""},"¿":{"ha":385,"x_min":0,"x_max":0,"o":""},"¡":{"ha":210,"x_min":0,"x_max":0,"o":""},"¬":{"ha":946,"x_min":0,"x_max":0,"o":""},"ƒ":{"ha":391,"x_min":0,"x_max":0,"o":""},"«":{"ha":366,"x_min":0,"x_max":0,"o":""},"»":{"ha":366,"x_min":0,"x_max":0,"o":""},"…":{"ha":537,"x_min":0,"x_max":0,"o":""}," ":{"ha":338,"x_min":0,"x_max":0,"o":""},"À":{"ha":413,"x_min":0,"x_max":0,"o":""},"Ã":{"ha":413,"x_min":0,"x_max":0,"o":""},"Õ":{"ha":472,"x_min":0,"x_max":0,"o":""},"Œ":{"ha":647,"x_min":0,"x_max":0,"o":""},"œ":{"ha":513,"x_min":0,"x_max":0,"o":""},"–":{"ha":464,"x_min":0,"x_max":0,"o":""},"—":{"ha":606,"x_min":0,"x_max":0,"o":""},"“":{"ha":232,"x_min":0,"x_max":0,"o":""},"”":{"ha":203,"x_min":0,"x_max":0,"o":""},"‘":{"ha":161,"x_min":0,"x_max":0,"o":""},"’":{"ha":163,"x_min":0,"x_max":0,"o":""},"÷":{"ha":431,"x_min":0,"x_max":0,"o":""},"ÿ":{"ha":267,"x_min":0,"x_max":0,"o":""},"Ÿ":{"ha":357,"x_min":0,"x_max":0,"o":""},"¤":{"ha":285,"x_min":0,"x_max":0,"o":""},"‹":{"ha":218,"x_min":0,"x_max":0,"o":""},"›":{"ha":218,"x_min":0,"x_max":0,"o":""},"‡":{"ha":228,"x_min":0,"x_max":0,"o":""},"·":{"ha":140,"x_min":0,"x_max":0,"o":""},"∙":{"ha":140,"x_min":0,"x_max":0,"o":""},"‚":{"ha":159,"x_min":0,"x_max":0,"o":""},"„":{"ha":273,"x_min":0,"x_max":0,"o":""},"‰":{"ha":494,"x_min":0,"x_max":0,"o":""},"Â":{"ha":413,"x_min":0,"x_max":0,"o":""},"Ê":{"ha":439,"x_min":0,"x_max":0,"o":""},"Á":{"ha":413,"x_min":0,"x_max":0,"o":""},"Ë":{"ha":439,"x_min":0,"x_max":0,"o":""},"È":{"ha":439,"x_min":0,"x_max":0,"o":""},"Í":{"ha":159,"x_min":0,"x_max":0,"o":""},"Î":{"ha":159,"x_min":0,"x_max":0,"o":""},"Ï":{"ha":159,"x_min":0,"x_max":0,"o":""},"Ì":{"ha":159,"x_min":0,"x_max":0,"o":""},"Ó":{"ha":472,"x_min":0,"x_max":0,"o":""},"Ô":{"ha":472,"x_min":0,"x_max":0,"o":""},"Ò":{"ha":472,"x_min":0,"x_max":0,"o":""},"Ú":{"ha":448,"x_min":0,"x_max":0,"o":""},"Û":{"ha":448,"x_min":0,"x_max":0,"o":""},"Ù":{"ha":448,"x_min":0,"x_max":0,"o":""},"ˆ":{"ha":244,"x_min":0,"x_max":0,"o":""},"˜":{"ha":328,"x_min":0,"x_max":0,"o":""},"¯":{"ha":244,"x_min":0,"x_max":0,"o":""},"ˉ":{"ha":244,"x_min":0,"x_max":0,"o":""},"¸":{"ha":218,"x_min":0,"x_max":0,"o":""},"Š":{"ha":421,"x_min":0,"x_max":0,"o":""},"š":{"ha":232,"x_min":0,"x_max":0,"o":""},"¦":{"ha":136,"x_min":0,"x_max":0,"o":""},"Ð":{"ha":450,"x_min":0,"x_max":0,"o":""},"ð":{"ha":328,"x_min":0,"x_max":0,"o":""},"Ý":{"ha":357,"x_min":0,"x_max":0,"o":""},"ý":{"ha":267,"x_min":0,"x_max":0,"o":""},"Þ":{"ha":391,"x_min":0,"x_max":0,"o":""},"þ":{"ha":236,"x_min":0,"x_max":0,"o":""},"­":{"ha":431,"x_min":0,"x_max":0,"o":""},"−":{"ha":431,"x_min":0,"x_max":0,"o":""},"×":{"ha":431,"x_min":0,"x_max":0,"o":""},"¹":{"ha":203,"x_min":0,"x_max":0,"o":""},"²":{"ha":203,"x_min":0,"x_max":0,"o":""},"³":{"ha":203,"x_min":0,"x_max":0,"o":""},"½":{"ha":533,"x_min":0,"x_max":0,"o":""},"¼":{"ha":533,"x_min":0,"x_max":0,"o":""},"¾":{"ha":533,"x_min":0,"x_max":0,"o":""},"Ł":{"ha":387,"x_min":0,"x_max":0,"o":""},"ł":{"ha":144,"x_min":0,"x_max":0,"o":""},"Ž":{"ha":468,"x_min":0,"x_max":0,"o":""},"ž":{"ha":313,"x_min":0,"x_max":0,"o":""},"≠":{"ha":431,"x_min":0,"x_max":0,"o":""},"∞":{"ha":454,"x_min":0,"x_max":0,"o":""},"≤":{"ha":232,"x_min":0,"x_max":0,"o":""},"≥":{"ha":232,"x_min":0,"x_max":0,"o":""},"∂":{"ha":328,"x_min":0,"x_max":0,"o":""},"∑":{"ha":948,"x_min":0,"x_max":0,"o":""},"∏":{"ha":541,"x_min":0,"x_max":0,"o":""},"π":{"ha":541,"x_min":0,"x_max":0,"o":""},"∫":{"ha":948,"x_min":0,"x_max":0,"o":""},"Ω":{"ha":979,"x_min":0,"x_max":0,"o":""},"Ω":{"ha":979,"x_min":0,"x_max":0,"o":""},"√":{"ha":555,"x_min":0,"x_max":0,"o":""},"≈":{"ha":431,"x_min":0,"x_max":0,"o":""},"⋲":{"ha":431,"x_min":0,"x_max":0,"o":""},"Δ":{"ha":248,"x_min":0,"x_max":0,"o":""},"∆":{"ha":248,"x_min":0,"x_max":0,"o":""},"◊":{"ha":165,"x_min":0,"x_max":0,"o":""},"⁄":{"ha":159,"x_min":0,"x_max":0,"o":""},"":{"ha":356,"x_min":0,"x_max":0,"o":""},"":{"ha":326,"x_min":0,"x_max":0,"o":""},"":{"ha":399,"x_min":0,"x_max":0,"o":""},"ı":{"ha":159,"x_min":0,"x_max":0,"o":""},"˘":{"ha":244,"x_min":0,"x_max":0,"o":""},"˙":{"ha":124,"x_min":0,"x_max":0,"o":""},"˚":{"ha":244,"x_min":0,"x_max":0,"o":""},"˝":{"ha":317,"x_min":0,"x_max":0,"o":""},"˛":{"ha":183,"x_min":0,"x_max":0,"o":""},"ˇ":{"ha":244,"x_min":0,"x_max":0,"o":""}}}
